<svg width="9" height="10" viewBox="0 0 9 10" fill="none" xmlns="http://www.w3.org/2000/svg">
<path d="M6.12033 8.33301e-08H4.17313C3.29097 -4.91694e-06 2.59223 -1.49541e-05 2.04538 0.0738041C1.48259 0.149773 1.02707 0.309837 0.667831 0.670516C0.308602 1.03119 0.149173 1.48854 0.0735091 2.0536C-1.48722e-05 2.60264 -4.91679e-06 3.30419 8.34822e-08 4.18988V7.10884C8.34822e-08 7.86293 0.46 8.50916 1.11365 8.78008C1.08 8.32535 1.08003 7.68727 1.08006 7.15639V4.69905V4.65145C1.08002 4.01057 1.07999 3.45841 1.1392 3.01622C1.20266 2.54233 1.34577 2.08807 1.71274 1.71962C2.07972 1.35117 2.53216 1.20749 3.00415 1.14378C3.44457 1.08433 3.99457 1.08436 4.63285 1.08439L4.68025 1.0844H6.12033L6.16773 1.08439C6.80602 1.08436 7.3548 1.08433 7.79522 1.14378C7.53176 0.473921 6.88117 8.33301e-08 6.12033 8.33301e-08Z" fill="#FFF4EC"/>
<path d="M1.80029 4.69873C1.80029 3.33555 1.80029 2.65397 2.22208 2.23049C2.64387 1.80701 3.32273 1.80701 4.68045 1.80701H6.12053C7.47825 1.80701 8.15709 1.80701 8.57891 2.23049C9.00068 2.65397 9.00068 3.33556 9.00068 4.69873V7.10851C9.00068 8.47169 9.00068 9.15328 8.57891 9.57675C8.15709 10.0002 7.47825 10.0002 6.12053 10.0002H4.68045C3.32273 10.0002 2.64387 10.0002 2.22208 9.57675C1.80029 9.15328 1.80029 8.47169 1.80029 7.10851V4.69873Z" fill="#FFF4EC"/>
</svg>
