<svg width="15" height="15" viewBox="0 0 15 15" fill="none" xmlns="http://www.w3.org/2000/svg">
<path d="M12.4443 8H8V13.7227C7.99991 13.8252 7.96908 13.9207 7.91602 14H10.4551C10.8989 14 11.2022 13.9996 11.4365 13.9805C11.665 13.9618 11.784 13.9276 11.8682 13.8848C12.0666 13.7836 12.228 13.6223 12.3291 13.4238C12.372 13.3397 12.4061 13.2206 12.4248 12.9922C12.4439 12.7579 12.4443 12.4546 12.4443 12.0107V8ZM2.55566 12.0107C2.55566 12.4546 2.55605 12.7579 2.5752 12.9922C2.59386 13.2206 2.62804 13.3397 2.6709 13.4238C2.7721 13.6223 2.93339 13.7837 3.13184 13.8848C3.21597 13.9276 3.33501 13.9618 3.56348 13.9805C3.79778 13.9996 4.10107 14 4.54492 14H7.08398C7.03092 13.9207 7.00009 13.8252 7 13.7227V8H2.55566V12.0107ZM14 4.85547C14 4.6297 13.9997 4.4903 13.9912 4.38574L13.9697 4.2627C13.9431 4.21046 13.9007 4.16818 13.8486 4.1416C13.8477 4.14112 13.8244 4.12819 13.7256 4.12012C13.621 4.11158 13.4817 4.11133 13.2559 4.11133H8V7H13.2559C13.4817 7 13.621 6.99974 13.7256 6.99121C13.8244 6.98314 13.8477 6.97021 13.8486 6.96973L13.9189 6.91895C13.9394 6.89853 13.9564 6.87469 13.9697 6.84863C13.9702 6.84769 13.9831 6.82435 13.9912 6.72559C13.9997 6.62104 14 6.48166 14 6.25586V4.85547ZM1 6.25586C1 6.48165 1.00026 6.62104 1.00879 6.72559C1.01686 6.82436 1.02979 6.84768 1.03027 6.84863L1.08105 6.91895C1.10146 6.93934 1.1253 6.9564 1.15137 6.96973L1.27441 6.99121C1.37897 6.99975 1.51835 7 1.74414 7H7V4.11133H1.74414C1.51834 4.11133 1.37897 4.11158 1.27441 4.12012C1.17564 4.12819 1.15232 4.14112 1.15137 4.1416C1.12532 4.15492 1.10148 4.17194 1.08105 4.19238L1.03027 4.2627C1.02979 4.26365 1.01686 4.28696 1.00879 4.38574C1.00027 4.49031 1 4.62971 1 4.85547V6.25586ZM11.2773 2.05566C11.2773 1.77286 11.1674 1.50299 10.9736 1.30566C10.7802 1.10876 10.5196 1 10.25 1C9.46326 1 8.90567 1.56552 8.5127 2.29297C8.35847 2.57847 8.24351 2.86757 8.16016 3.11133H10.25C10.486 3.11133 10.7152 3.02792 10.8984 2.875L10.9736 2.80469C11.1672 2.60742 11.2773 2.33829 11.2773 2.05566ZM3.72266 2.05566C3.72268 2.33833 3.83278 2.60745 4.02637 2.80469C4.21983 3.00167 4.48034 3.11133 4.75 3.11133H6.83984C6.75649 2.86757 6.64153 2.57847 6.4873 2.29297C6.09433 1.56552 5.53675 1 4.75 1C4.4804 1 4.21981 1.10876 4.02637 1.30566C3.8326 1.50295 3.72266 1.77284 3.72266 2.05566ZM12.2773 2.05566C12.2773 2.43038 12.1748 2.79419 11.9873 3.11133H13.2559C13.4653 3.11133 13.6529 3.11041 13.8076 3.12305C13.9681 3.13619 14.1375 3.16579 14.3027 3.25C14.5431 3.37252 14.7379 3.56847 14.8604 3.80859C14.9446 3.97391 14.9742 4.14319 14.9873 4.30371C14.9999 4.45847 15 4.64596 15 4.85547V6.25586C15 6.4653 14.9999 6.65291 14.9873 6.80762C14.9742 6.96809 14.9446 7.13749 14.8604 7.30273C14.7379 7.54282 14.5428 7.73789 14.3027 7.86035C14.1375 7.94456 13.9681 7.97416 13.8076 7.9873C13.701 7.99602 13.5785 7.9983 13.4443 7.99902V12.0107C13.4443 12.4379 13.4451 12.7888 13.4219 13.0732C13.3982 13.3636 13.3474 13.6293 13.2207 13.8779C13.0237 14.2647 12.709 14.5793 12.3223 14.7764C12.0737 14.903 11.8079 14.9538 11.5176 14.9775C11.2332 15.0007 10.8822 15 10.4551 15H4.54492C4.11778 15 3.76682 15.0007 3.48242 14.9775C3.19212 14.9538 2.92633 14.903 2.67773 14.7764C2.29093 14.5793 1.97635 14.2646 1.7793 13.8779C1.65262 13.6293 1.60184 13.3636 1.57812 13.0732C1.55491 12.7888 1.55566 12.4379 1.55566 12.0107V7.99902C1.42173 7.9983 1.29988 7.99599 1.19336 7.9873C1.03274 7.97418 0.862691 7.94465 0.697266 7.86035C0.457322 7.73795 0.262146 7.54292 0.139648 7.30273C0.0554517 7.13749 0.0258392 6.96808 0.0126953 6.80762C5.58617e-05 6.65291 -3.71488e-07 6.4653 1.5418e-09 6.25586V4.85547C-1.06141e-07 4.64596 5.15571e-05 4.45847 0.0126953 4.30371C0.0258308 4.14319 0.0554204 3.9739 0.139648 3.80859C0.262139 3.56837 0.457022 3.37246 0.697266 3.25C0.862687 3.16572 1.03274 3.13617 1.19336 3.12305C1.34797 3.11045 1.53494 3.11133 1.74414 3.11133H3.0127C2.82515 2.79417 2.72268 2.43036 2.72266 2.05566C2.72266 1.51354 2.93345 0.99159 3.3125 0.605469C3.69206 0.218996 4.20926 9.00364e-07 4.75 0C6.10211 0 6.9199 0.990311 7.36719 1.81836C7.41517 1.9072 7.45843 1.99651 7.5 2.08398C7.54157 1.99651 7.58483 1.9072 7.63281 1.81836C8.0801 0.990312 8.8979 0 10.25 0C10.7908 3.08684e-06 11.3079 0.219015 11.6875 0.605469C12.0665 0.991559 12.2773 1.51349 12.2773 2.05566Z" fill="#FFF4EC"/>
</svg>
