<?xml version="1.0" encoding="UTF-8"?>
<svg id="Layer_2" data-name="Layer 2" xmlns="http://www.w3.org/2000/svg" viewBox="0 0 281.84 281.84">
  <defs>
    <style>
      .cls-1 {
        fill: #1a2f5a;
      }
    </style>
  </defs>
  <g id="Layer_1-2" data-name="Layer 1">
    <path class="cls-1" d="M281.84,140.92c0-15.72-31.55-28.46-70.46-28.46-.61,0-1.21.01-1.82.02.43-.43.88-.82,1.31-1.26,27.52-27.52,40.81-58.83,29.7-69.95-11.11-11.11-42.43,2.18-69.95,29.7-.43.43-.83.87-1.26,1.31,0-.61.02-1.21.02-1.82,0-38.91-12.74-70.46-28.46-70.46s-28.46,31.55-28.46,70.46c0,.61.01,1.21.02,1.82-.43-.44-.82-.88-1.26-1.31-27.52-27.52-58.83-40.81-69.95-29.7-11.11,11.11,2.18,42.43,29.7,69.95.43.43.87.83,1.31,1.26-.61,0-1.21-.02-1.82-.02C31.55,112.46,0,125.2,0,140.92s31.55,28.46,70.46,28.46c.61,0,1.21-.01,1.82-.02-.43.43-.88.82-1.31,1.26-27.52,27.52-40.81,58.83-29.7,69.95,11.11,11.11,42.43-2.18,69.95-29.7.43-.43.83-.87,1.26-1.31,0,.61-.02,1.21-.02,1.82,0,38.91,12.74,70.46,28.46,70.46s28.46-31.55,28.46-70.46c0-.61-.01-1.21-.02-1.82.43.44.82.88,1.26,1.31,27.52,27.52,58.83,40.81,69.95,29.7,11.11-11.11-2.18-42.43-29.7-69.95-.43-.43-.87-.83-1.31-1.26.61,0,1.21.02,1.82.02,38.91,0,70.46-12.74,70.46-28.46ZM140.92,190.74c-27.52,0-49.82-22.31-49.82-49.82s22.31-49.82,49.82-49.82,49.82,22.31,49.82,49.82-22.31,49.82-49.82,49.82Z"/>
  </g>
</svg>