<?xml version="1.0" encoding="UTF-8"?>
<svg id="Layer_2" data-name="Layer 2" xmlns="http://www.w3.org/2000/svg" viewBox="0 0 340.11 101.82">
  <defs>
    <style>
      .cls-1 {
        fill: #fff4ec;
      }

      .cls-2 {
        fill: #1a2f5a;
      }
    </style>
  </defs>
  <g id="Layer_1-2" data-name="Layer 1">
    <g>
      <path class="cls-1" d="M329.81,0H10.3C4.61,0,0,4.61,0,10.3v53.27c0,5.69,4.61,10.3,10.3,10.3h26.04l14.77,25.59c1.82,3.14,6.35,3.14,8.17,0l14.77-25.59h255.76c5.69,0,10.3-4.61,10.3-10.3V10.3c0-5.69-4.61-10.3-10.3-10.3Z"/>
      <g>
        <path class="cls-2" d="M51.9,44.54h-10.74v-19.67h2.37v17.58h8.37v2.09Z"/>
        <path class="cls-2" d="M56.18,26.59c-.47,0-.82-.12-1.04-.35-.22-.24-.34-.54-.34-.92v-.37c0-.38.11-.68.34-.92.23-.24.57-.35,1.04-.35s.84.12,1.06.35.32.54.32.92v.37c0,.38-.11.68-.32.92s-.57.35-1.06.35ZM55.06,44.54v-14.54h2.26v14.54h-2.26Z"/>
        <path class="cls-2" d="M66.47,44.88c-1.33,0-2.46-.26-3.38-.78-.92-.52-1.71-1.21-2.37-2.07l1.61-1.3c.56.7,1.19,1.24,1.89,1.64s1.5.59,2.42.59,1.7-.21,2.24-.62c.53-.41.8-1,.8-1.75,0-.56-.18-1.05-.55-1.47-.36-.41-1.03-.68-1.99-.82l-1.16-.17c-.88-.13-1.68-.35-2.39-.66-.72-.31-1.27-.75-1.68-1.32-.41-.57-.61-1.31-.61-2.21,0-1.45.49-2.52,1.48-3.23.99-.7,2.22-1.06,3.7-1.06.79,0,1.49.09,2.1.28s1.16.46,1.65.8.93.77,1.32,1.25l-1.49,1.35c-.32-.45-.79-.86-1.41-1.23-.62-.37-1.4-.55-2.34-.55s-1.63.2-2.11.61c-.49.4-.73.95-.73,1.65s.24,1.21.72,1.54c.48.33,1.17.57,2.07.72l1.13.17c1.61.24,2.76.71,3.44,1.39s1.01,1.58,1.01,2.69c0,.94-.22,1.75-.65,2.42-.43.68-1.05,1.2-1.86,1.56-.81.37-1.77.55-2.87.55Z"/>
        <path class="cls-2" d="M81.66,44.54h-2.82c-.77,0-1.36-.23-1.77-.68s-.62-1.02-.62-1.72v-10.17h-2.4v-1.97h1.35c.49,0,.82-.1,1-.3s.27-.54.27-1.03v-2.71h2.03v4.03h3.18v1.97h-3.18v10.6h2.96v1.97Z"/>
        <path class="cls-2" d="M90.87,44.88c-1.31,0-2.46-.32-3.44-.94-.98-.63-1.74-1.51-2.28-2.65-.55-1.14-.82-2.47-.82-4.02s.27-2.88.82-4.02c.54-1.14,1.3-2.02,2.28-2.65s2.12-.94,3.44-.94,2.41.3,3.35.92c.94.61,1.66,1.45,2.17,2.52s.76,2.29.76,3.66v1.07h-10.45v.68c0,1.26.38,2.31,1.14,3.14.76.84,1.82,1.25,3.17,1.25.92,0,1.72-.22,2.41-.65.69-.43,1.22-1.05,1.59-1.86l1.61,1.16c-.47.98-1.2,1.77-2.2,2.4-1,.62-2.18.93-3.55.93ZM90.87,31.55c-.81,0-1.52.19-2.16.56-.63.38-1.12.9-1.48,1.56-.36.67-.53,1.42-.53,2.27v.2h8.03v-.31c0-.86-.16-1.62-.48-2.25s-.77-1.14-1.35-1.49c-.58-.36-1.26-.54-2.03-.54Z"/>
        <path class="cls-2" d="M103.13,44.54h-2.26v-14.54h2.26v2.37h.11c.36-.83.86-1.48,1.51-1.97s1.52-.73,2.61-.73c1.5,0,2.69.48,3.56,1.45s1.31,2.33,1.31,4.1v9.33h-2.25v-8.93c0-1.3-.28-2.27-.83-2.93-.55-.66-1.38-.99-2.47-.99-.6,0-1.17.1-1.72.3-.54.2-.99.5-1.32.92-.34.41-.51.93-.51,1.55v10.09Z"/>
        <path class="cls-2" d="M129.56,44.54h-2.82c-.77,0-1.36-.23-1.77-.68s-.62-1.02-.62-1.72v-10.17h-2.4v-1.97h1.35c.49,0,.82-.1,1-.3s.27-.54.27-1.03v-2.71h2.03v4.03h3.18v1.97h-3.18v10.6h2.96v1.97Z"/>
        <path class="cls-2" d="M138.81,44.88c-1.3,0-2.44-.32-3.42-.94-.99-.63-1.76-1.51-2.31-2.65-.55-1.14-.83-2.47-.83-4.02s.28-2.88.83-4.02c.55-1.14,1.33-2.02,2.31-2.65s2.13-.94,3.42-.94,2.44.31,3.42.94,1.76,1.51,2.31,2.65c.55,1.14.83,2.48.83,4.02s-.28,2.88-.83,4.02c-.55,1.14-1.32,2.02-2.31,2.65-.99.63-2.13.94-3.42.94ZM138.81,42.88c1.22,0,2.22-.38,2.99-1.13s1.16-1.9,1.16-3.44v-2.09c0-1.54-.39-2.69-1.16-3.44s-1.77-1.13-2.99-1.13-2.19.38-2.97,1.13-1.17,1.9-1.17,3.44v2.09c0,1.54.39,2.69,1.17,3.44s1.77,1.13,2.97,1.13Z"/>
        <path class="cls-2" d="M161.24,44.88c-1.3,0-2.44-.32-3.42-.94-.99-.63-1.76-1.51-2.31-2.65-.55-1.14-.83-2.47-.83-4.02s.28-2.88.83-4.02c.55-1.14,1.33-2.02,2.31-2.65s2.13-.94,3.42-.94,2.44.31,3.42.94,1.76,1.51,2.31,2.65c.55,1.14.83,2.48.83,4.02s-.28,2.88-.83,4.02c-.55,1.14-1.32,2.02-2.31,2.65-.99.63-2.13.94-3.42.94ZM161.24,42.88c1.22,0,2.22-.38,2.99-1.13s1.16-1.9,1.16-3.44v-2.09c0-1.54-.39-2.69-1.16-3.44s-1.77-1.13-2.99-1.13-2.19.38-2.97,1.13-1.17,1.9-1.17,3.44v2.09c0,1.54.39,2.69,1.17,3.44s1.77,1.13,2.97,1.13Z"/>
        <path class="cls-2" d="M180.48,44.54v-2.37h-.11c-.28.69-.73,1.32-1.34,1.87s-1.52.83-2.75.83c-1.48,0-2.67-.48-3.56-1.45-.89-.97-1.34-2.33-1.34-4.1v-9.33h2.25v8.93c0,1.3.28,2.27.85,2.93.56.66,1.39.99,2.48.99.6,0,1.17-.1,1.7-.3.54-.2.97-.5,1.31-.91.34-.41.51-.94.51-1.58v-10.06h2.25v14.54h-2.25Z"/>
        <path class="cls-2" d="M189.78,44.54h-2.26v-14.54h2.26v2.68h.14c.17-.47.43-.91.79-1.31s.82-.73,1.38-.99c.56-.25,1.24-.38,2.03-.38h.87v2.25h-1.33c-.81,0-1.5.11-2.08.32-.58.22-1.03.5-1.34.86s-.46.77-.46,1.24v9.86Z"/>
        <path class="cls-2" d="M204.51,50.18v-20.18h2.26v2.37h.11c.37-.92.93-1.6,1.66-2.04.73-.44,1.6-.66,2.59-.66,1.22,0,2.27.31,3.16.93s1.56,1.5,2.04,2.63.72,2.48.72,4.04-.24,2.88-.72,4.03-1.16,2.03-2.04,2.65-1.93.93-3.16.93c-1,0-1.85-.23-2.55-.68s-1.27-1.13-1.7-2.03h-.11v8h-2.26ZM210.52,42.85c1.28,0,2.28-.4,3.02-1.2.73-.8,1.1-1.85,1.1-3.14v-2.48c0-1.3-.37-2.34-1.1-3.14-.73-.8-1.74-1.2-3.02-1.2-.68,0-1.3.12-1.87.37-.57.24-1.03.57-1.37.99-.34.41-.51.89-.51,1.44v5.41c0,.62.17,1.15.51,1.59.34.44.79.78,1.37,1.01.57.24,1.2.35,1.87.35Z"/>
        <path class="cls-2" d="M225.25,44.54h-2c-.77,0-1.36-.22-1.77-.66-.41-.44-.62-1-.62-1.68v-18.51h2.26v18.88h2.14v1.97Z"/>
        <path class="cls-2" d="M240.36,44.54h-1.27c-.6,0-1.09-.13-1.46-.38-.38-.25-.65-.61-.82-1.06-.17-.45-.25-.97-.25-1.55v-.2l.87.82h-.99c-.3.88-.82,1.55-1.56,2.01-.74.46-1.62.69-2.63.69-1.54,0-2.74-.39-3.59-1.18-.86-.79-1.28-1.86-1.28-3.21,0-.92.22-1.69.68-2.32.45-.63,1.13-1.11,2.04-1.44.91-.33,2.07-.49,3.48-.49h2.87v-1.44c0-1.03-.28-1.82-.84-2.37-.56-.54-1.43-.82-2.59-.82-.86,0-1.6.2-2.2.59s-1.1.92-1.49,1.58l-1.35-1.27c.39-.77,1.02-1.44,1.89-2,.86-.56,1.95-.85,3.27-.85,1.75,0,3.11.43,4.1,1.3.99.86,1.48,2.07,1.48,3.61v8h1.66v1.97ZM236.44,37.92h-2.99c-1.28,0-2.22.19-2.82.56-.6.38-.9.92-.9,1.64v.59c0,.71.26,1.27.79,1.66.53.39,1.22.59,2.08.59.75,0,1.41-.12,1.99-.35.57-.24,1.02-.55,1.35-.96.33-.4.49-.85.49-1.34v-2.4Z"/>
        <path class="cls-2" d="M248.87,39.89l3.52-9.89h2.23l-6.51,17.92c-.21.58-.44,1.04-.69,1.37-.25.33-.59.56-1,.69s-.98.2-1.69.2h-1.16v-1.97h2.28l1.1-3.1-5.44-15.1h2.25l3.49,9.89.68,2.37h.14l.79-2.37Z"/>
        <path class="cls-2" d="M261.89,44.54h-2c-.77,0-1.36-.22-1.77-.66-.41-.44-.62-1-.62-1.68v-18.51h2.26v18.88h2.14v1.97Z"/>
        <path class="cls-2" d="M266.28,26.59c-.47,0-.82-.12-1.04-.35-.22-.24-.34-.54-.34-.92v-.37c0-.38.11-.68.34-.92.23-.24.57-.35,1.04-.35s.84.12,1.06.35.32.54.32.92v.37c0,.38-.11.68-.32.92s-.57.35-1.06.35ZM265.15,44.54v-14.54h2.26v14.54h-2.26Z"/>
        <path class="cls-2" d="M276.57,44.88c-1.33,0-2.46-.26-3.38-.78-.92-.52-1.71-1.21-2.37-2.07l1.61-1.3c.56.7,1.19,1.24,1.89,1.64s1.5.59,2.42.59,1.7-.21,2.24-.62c.53-.41.8-1,.8-1.75,0-.56-.18-1.05-.55-1.47-.36-.41-1.03-.68-1.99-.82l-1.16-.17c-.88-.13-1.68-.35-2.39-.66-.72-.31-1.27-.75-1.68-1.32-.41-.57-.61-1.31-.61-2.21,0-1.45.49-2.52,1.48-3.23.99-.7,2.22-1.06,3.7-1.06.79,0,1.49.09,2.1.28s1.16.46,1.65.8.93.77,1.32,1.25l-1.49,1.35c-.32-.45-.79-.86-1.41-1.23-.62-.37-1.4-.55-2.34-.55s-1.63.2-2.11.61c-.49.4-.73.95-.73,1.65s.24,1.21.72,1.54c.48.33,1.17.57,2.07.72l1.13.17c1.61.24,2.76.71,3.44,1.39s1.01,1.58,1.01,2.69c0,.94-.22,1.75-.65,2.42-.43.68-1.05,1.2-1.86,1.56-.81.37-1.77.55-2.87.55Z"/>
        <path class="cls-2" d="M291.76,44.54h-2.82c-.77,0-1.36-.23-1.77-.68s-.62-1.02-.62-1.72v-10.17h-2.4v-1.97h1.35c.49,0,.82-.1,1-.3s.27-.54.27-1.03v-2.71h2.03v4.03h3.18v1.97h-3.18v10.6h2.96v1.97Z"/>
        <path class="cls-2" d="M297.22,44.88c-.58,0-1.01-.15-1.3-.45s-.42-.69-.42-1.18v-.37c0-.49.14-.88.42-1.18s.71-.45,1.3-.45,1.04.15,1.31.45.41.69.41,1.18v.37c0,.49-.14.88-.41,1.18s-.71.45-1.31.45ZM297.79,39.33h-1.13l-.68-8.73v-5.72h2.48v5.72l-.68,8.73Z"/>
      </g>
    </g>
  </g>
</svg>