<svg width="69" height="20" viewBox="0 0 69 20" fill="none" xmlns="http://www.w3.org/2000/svg">
<path d="M0.071152 13.7442C0.071152 12.7519 0.0536556 11.9183 0 11.1745H1.87911L1.96815 12.4522H2.02064C2.44522 11.778 3.22517 10.979 4.67893 10.979C5.81386 10.979 6.69918 11.6185 7.07088 12.5742H7.10743C7.40836 12.096 7.76218 11.7418 8.16965 11.4945C8.64828 11.1578 9.19883 10.979 9.90685 10.979C11.3423 10.979 12.7949 11.9537 12.7949 14.7205V19.8057H10.6689V15.0381C10.6689 13.6038 10.1728 12.7519 9.1269 12.7519C8.38272 12.7519 7.83256 13.2838 7.60277 13.9047C7.54989 14.1155 7.49662 14.383 7.49662 14.6295V19.8057H5.36984V14.8064C5.36984 13.6038 4.89199 12.7519 3.8807 12.7519C3.06692 12.7519 2.51754 13.39 2.3208 13.9922C2.23293 14.2045 2.19716 14.4534 2.19716 14.7006V19.8057H0.071152V13.7442Z" fill="#003D79"/>
<path d="M21.0802 17.7325C21.0802 18.5117 21.1151 19.273 21.2034 19.8056H19.236L19.0945 18.8492H19.0409C18.509 19.5234 17.605 20 16.4907 20C14.7527 20 13.7783 18.743 13.7783 17.4308C13.7783 15.2496 15.7084 14.1527 18.9001 14.1698V14.0283C18.9001 13.461 18.6688 12.5217 17.1446 12.5217C16.2935 12.5217 15.4078 12.788 14.8231 13.1593L14.3981 11.7417C15.0361 11.3514 16.1524 10.9789 17.5163 10.9789C20.2819 10.9789 21.0802 12.7351 21.0802 14.6123V17.7325ZM18.9526 15.589C17.4102 15.5528 15.9401 15.8892 15.9401 17.2006C15.9401 18.0513 16.4907 18.4417 17.1808 18.4417C18.0478 18.4417 18.687 17.8729 18.8818 17.2531C18.9343 17.0929 18.9526 16.9172 18.9526 16.7752V15.589Z" fill="#003D79"/>
<path d="M22.5857 13.7441C22.5857 12.7519 22.567 11.9183 22.5161 11.1745H24.4283L24.5344 12.47H24.5885C24.9602 11.7958 25.8999 10.9789 27.335 10.9789C28.842 10.9789 30.4008 11.9537 30.4008 14.6843V19.8057H28.2215V14.9331C28.2215 13.6916 27.7596 12.7519 26.5729 12.7519C25.7055 12.7519 25.1017 13.372 24.8719 14.0284C24.8015 14.2231 24.7833 14.4887 24.7833 14.736V19.8057H22.5857V13.7441Z" fill="#003D79"/>
<path d="M39.8507 7.70778V17.3775C39.8507 18.2632 39.8872 19.2212 39.9218 19.8056H37.9735L37.8848 18.4416H37.8487C37.3347 19.3985 36.2888 20 35.0314 20C32.975 20 31.3458 18.2457 31.3458 15.5889C31.3272 12.6993 33.1344 10.9792 35.2083 10.9792C36.3949 10.9792 37.246 11.4753 37.6356 12.1157H37.6718V7.70778H39.8507ZM37.6718 14.772C37.6718 14.5955 37.6543 14.3828 37.6181 14.2044C37.4233 13.3556 36.7332 12.6639 35.7402 12.6639C34.3401 12.6639 33.5593 13.9046 33.5593 15.517C33.5593 17.0928 34.3401 18.2457 35.7231 18.2457C36.6072 18.2457 37.3879 17.643 37.6002 16.7033C37.6543 16.5089 37.6718 16.2954 37.6718 16.0656V14.772Z" fill="#003D79"/>
<path d="M41.3931 11.1748H43.5918V19.8056H41.3931V11.1748Z" fill="#003D79"/>
<path d="M45.1316 13.9577C45.1316 12.7877 45.1141 11.9537 45.062 11.1746H46.9582L47.0278 12.8212H47.0998C47.5251 11.5999 48.5345 11.1746 49.4579 11.1746C49.6694 11.1746 49.7934 11.1392 49.9699 11.1746V13.0894C49.7934 13.0537 49.599 13.0187 49.3331 13.0187C48.2864 13.0187 47.5772 13.6917 47.3828 14.6649C47.3486 14.8605 47.3124 15.0918 47.3124 15.3403V19.8057H45.1316V13.9577Z" fill="#003D79"/>
<path d="M50.9819 11.1748H53.1779V19.8056H50.9819V11.1748Z" fill="#003D79"/>
<path d="M50.5326 0.726295C49.2099 1.49303 44.8988 3.95613 44.8988 3.95613C43.2802 4.62333 42.0403 3.81072 41.6386 3.21506C41.6207 3.19251 41.6028 3.16567 41.5912 3.14351L41.5383 3.05293L41.265 2.60657C41.1483 2.42228 41.0185 2.23254 40.8696 2.03774C40.7366 1.86744 40.5888 1.69872 40.4283 1.53581C39.3894 0.485635 37.7264 -0.251953 34.9562 1.06572C33.2808 2.0218 29.3849 4.24969 29.3849 4.24969C29.3845 4.25085 29.3845 4.25085 29.3841 4.25085C27.7811 5.16727 26.5322 5.88034 26.5322 5.88034L28.0078 7.6922C28.6283 8.28358 29.7955 9.25365 31.6011 8.4356C31.6011 8.4356 36.5841 5.55025 36.6035 5.5417C40.8637 3.20379 42.9664 5.43788 43.8953 6.92702C43.9275 6.9729 43.9544 7.02383 43.9827 7.06893L43.9851 7.07088C43.996 7.08876 44.0041 7.10588 44.0131 7.12299L44.1192 7.29523C44.571 7.98148 45.286 8.42471 46.1368 8.40449C46.6064 8.39516 46.9253 8.24197 47.3887 7.98419L52.2103 5.18789C52.2134 5.18634 52.2158 5.18437 52.2208 5.1836C56.5335 2.81731 58.6712 5.19721 59.5845 6.68596C59.6552 6.81504 59.7369 6.93752 59.8185 7.0526C60.2703 7.66537 60.8944 8.067 61.686 8.04717C62.2086 8.03667 62.7957 7.72291 62.882 7.66536L68.6632 4.32978C68.6632 4.32978 68.0718 3.43786 66.8556 2.04709C65.7681 0.806403 64.6114 1.36783 63.6926 1.82469C63.3066 2.0152 60.5157 3.59727 60.5157 3.59727C58.9869 4.22792 57.796 3.53972 57.3286 2.96078C57.2804 2.89935 57.2388 2.84259 57.2069 2.7866L57.0992 2.59803C56.9316 2.31537 56.7318 1.99655 56.4857 1.68161C56.3539 1.51092 56.2069 1.34023 56.0455 1.17887C55.4028 0.529558 54.5237 0.000396729 53.2932 7.62939e-06C52.5206 7.62939e-06 51.6104 0.208402 50.5326 0.726295Z" fill="url(#paint0_linear_228_129)"/>
<defs>
<linearGradient id="paint0_linear_228_129" x1="26.1882" y1="4.69013" x2="71.1928" y2="-16.1049" gradientUnits="userSpaceOnUse">
<stop stop-color="#FDB913"/>
<stop offset="0.224719" stop-color="#FFCB05"/>
<stop offset="0.393258" stop-color="#FAA61A"/>
<stop offset="0.52809" stop-color="#FFCB05"/>
<stop offset="0.646067" stop-color="#FAA61A"/>
<stop offset="0.764045" stop-color="#FFCB05"/>
<stop offset="1" stop-color="#FFCB05"/>
</linearGradient>
</defs>
</svg>
