<svg width="205" height="41" viewBox="0 0 205 41" fill="none" xmlns="http://www.w3.org/2000/svg">
<path d="M194.334 13.375C194.229 13.375 194.149 13.3132 194.093 13.1894C194.043 13.0656 194.019 12.9697 194.019 12.9017C194.019 12.6975 194.121 12.583 194.325 12.5582C194.622 12.5335 194.903 12.4809 195.17 12.4005C195.442 12.3138 195.578 12.1684 195.578 11.9642L195.587 1.92135C195.587 1.65527 195.516 1.46345 195.374 1.34588C195.231 1.22831 195.058 1.15096 194.854 1.11384C194.656 1.07052 194.461 1.03958 194.269 1.02102C194.139 1.00864 194.05 0.983891 194 0.946764C193.957 0.903449 193.935 0.813726 193.935 0.677593C193.935 0.609527 193.96 0.513616 194.009 0.389859C194.065 0.266102 194.145 0.204224 194.251 0.204224H199.012C199.117 0.204224 199.195 0.266102 199.244 0.389859C199.3 0.513616 199.328 0.609527 199.328 0.677593C199.328 0.906543 199.226 1.02102 199.021 1.02102C198.817 1.02102 198.595 1.04577 198.353 1.09527C198.112 1.14478 197.905 1.2345 197.731 1.36444C197.564 1.4882 197.481 1.66455 197.481 1.8935L197.471 11.7322C197.471 12.0354 197.577 12.2303 197.787 12.3169C197.997 12.3974 198.217 12.4376 198.446 12.4376H201.091C201.382 12.4376 201.661 12.2705 201.927 11.9364C202.199 11.596 202.446 11.1814 202.669 10.6926C202.892 10.2038 203.078 9.73659 203.226 9.29107C203.263 9.17968 203.322 9.10234 203.402 9.05902C203.483 9.00952 203.573 8.98477 203.672 8.98477C203.789 8.98477 203.882 9.01261 203.95 9.0683C204.024 9.11781 204.055 9.19515 204.043 9.30035L203.588 13.375H194.334Z" fill="#1B2F5A"/>
<path d="M176.554 13.375C176.455 13.375 176.378 13.3286 176.322 13.2358C176.266 13.1368 176.239 13.0254 176.239 12.9016C176.239 12.7593 176.263 12.6696 176.313 12.6325C176.356 12.5953 176.443 12.5706 176.573 12.5582C176.727 12.5397 176.894 12.5304 177.074 12.5304C177.26 12.5242 177.433 12.4778 177.594 12.3911C177.761 12.2983 177.894 12.1158 177.993 11.8435L182.244 0H183.729L187.859 11.8435C187.958 12.1158 188.088 12.2983 188.249 12.3911C188.41 12.4778 188.58 12.5242 188.76 12.5304C188.945 12.5304 189.112 12.5397 189.261 12.5582C189.391 12.5706 189.477 12.5953 189.521 12.6325C189.57 12.6696 189.595 12.7593 189.595 12.9016C189.595 12.9697 189.567 13.0656 189.511 13.1894C189.462 13.3131 189.385 13.375 189.279 13.375H184.629C184.524 13.375 184.444 13.3131 184.388 13.1894C184.338 13.0656 184.314 12.9697 184.314 12.9016C184.314 12.6974 184.416 12.583 184.62 12.5582C184.997 12.5397 185.304 12.5242 185.539 12.5118C185.774 12.4994 185.892 12.4221 185.892 12.2798C185.892 12.2365 185.882 12.1931 185.864 12.1498L184.611 8.39071L185.168 8.78982H179.868L180.415 8.39071L179.153 12.1498C179.141 12.1808 179.134 12.2179 179.134 12.2612C179.134 12.4159 179.264 12.4994 179.524 12.5118C179.79 12.518 180.112 12.5335 180.49 12.5582C180.694 12.583 180.796 12.6974 180.796 12.9016C180.796 12.9697 180.768 13.0656 180.712 13.1894C180.663 13.3131 180.585 13.375 180.48 13.375H176.554ZM180.425 8.39071L180.137 7.99159H184.889L184.611 8.39071L182.606 2.35757L180.425 8.39071Z" fill="#1B2F5A"/>
<path d="M156.203 13.375C156.098 13.375 156.017 13.3132 155.962 13.1894C155.912 13.0656 155.887 12.9697 155.887 12.9017C155.887 12.6975 155.989 12.583 156.194 12.5582C156.441 12.5397 156.689 12.5118 156.936 12.4747C157.184 12.4376 157.391 12.3602 157.558 12.2427C157.731 12.1189 157.818 11.9271 157.818 11.6672V1.92135C157.818 1.65527 157.725 1.46345 157.539 1.34588C157.354 1.22212 157.131 1.14168 156.871 1.10455C156.611 1.06124 156.367 1.03339 156.138 1.02102C156.008 1.00864 155.918 0.983891 155.869 0.946764C155.825 0.903449 155.804 0.813726 155.804 0.677593C155.804 0.609527 155.828 0.516709 155.878 0.399141C155.934 0.275384 156.014 0.210411 156.119 0.204224H160.732L164.046 9.97791H164.157L166.895 1.80997C167.019 1.4387 167.121 1.1324 167.202 0.891074C167.282 0.64356 167.344 0.41461 167.387 0.204224H171.508C171.614 0.204224 171.691 0.266102 171.74 0.389859C171.796 0.513616 171.824 0.609527 171.824 0.677593C171.824 0.881792 171.722 0.996267 171.518 1.02102C171.221 1.04577 170.921 1.10146 170.617 1.18809C170.32 1.26853 170.172 1.41085 170.172 1.61505L170.163 11.6579C170.163 11.924 170.243 12.1158 170.404 12.2334C170.565 12.351 170.757 12.4283 170.979 12.4654C171.208 12.5026 171.416 12.5335 171.601 12.5582C171.731 12.5706 171.818 12.5954 171.861 12.6325C171.911 12.6696 171.935 12.7593 171.935 12.9017C171.935 12.9697 171.908 13.0656 171.852 13.1894C171.802 13.3132 171.725 13.375 171.62 13.375H166.858C166.753 13.375 166.673 13.3132 166.617 13.1894C166.567 13.0656 166.543 12.9697 166.543 12.9017C166.543 12.6975 166.645 12.583 166.849 12.5582C167.047 12.5397 167.254 12.5118 167.471 12.4747C167.694 12.4314 167.882 12.3695 168.037 12.2891C168.192 12.2086 168.269 12.1003 168.269 11.9642L168.278 1.48511H167.935L163.953 13.375H163.48L159.062 1.48511H158.718V11.6579C158.718 11.924 158.82 12.1189 159.024 12.2427C159.229 12.3602 159.47 12.4376 159.748 12.4747C160.027 12.5118 160.278 12.5397 160.5 12.5582C160.63 12.5706 160.717 12.5954 160.76 12.6325C160.81 12.6696 160.834 12.7593 160.834 12.9017C160.834 12.9697 160.807 13.0656 160.751 13.1894C160.701 13.3132 160.624 13.375 160.519 13.375H156.203Z" fill="#1B2F5A"/>
<path d="M139.341 13.375C139.236 13.375 139.156 13.3132 139.1 13.1894C139.051 13.0656 139.026 12.9697 139.026 12.9017C139.026 12.6975 139.128 12.583 139.332 12.5582C139.629 12.5335 139.926 12.4809 140.223 12.4005C140.526 12.3138 140.678 12.1684 140.678 11.9642L140.687 1.92135C140.687 1.65527 140.607 1.46345 140.446 1.34588C140.291 1.22831 140.106 1.15096 139.889 1.11384C139.673 1.07052 139.468 1.03958 139.277 1.02102C139.147 1.00864 139.057 0.983891 139.007 0.946764C138.964 0.903449 138.942 0.813726 138.942 0.677593C138.942 0.609527 138.967 0.513616 139.017 0.389859C139.072 0.266102 139.153 0.204224 139.258 0.204224H143.852C143.958 0.204224 144.035 0.266102 144.084 0.389859C144.14 0.513616 144.168 0.609527 144.168 0.677593C144.168 0.881792 144.066 0.996267 143.862 1.02102C143.565 1.04577 143.28 1.10146 143.008 1.18809C142.742 1.26853 142.609 1.41085 142.609 1.61505L142.599 11.6579C142.599 11.924 142.671 12.1158 142.813 12.2334C142.955 12.351 143.128 12.4283 143.333 12.4654C143.537 12.5026 143.732 12.5335 143.917 12.5582C144.047 12.5706 144.134 12.5954 144.177 12.6325C144.227 12.6696 144.252 12.7593 144.252 12.9017C144.252 12.9697 144.224 13.0656 144.168 13.1894C144.119 13.3132 144.041 13.375 143.936 13.375H139.341ZM148.382 13.375C148.277 13.375 148.141 13.3255 147.974 13.2265C147.806 13.1275 147.612 12.9202 147.389 12.6047C147.147 12.2643 146.884 11.859 146.6 11.3887C146.315 10.9123 146.015 10.4203 145.7 9.91294C145.39 9.39935 145.078 8.91979 144.762 8.47427C144.446 8.02256 144.137 7.65129 143.834 7.36046C143.531 7.06344 143.246 6.89947 142.98 6.86853L147.287 1.53152C147.336 1.47582 147.361 1.42323 147.361 1.37373C147.361 1.2871 147.296 1.22212 147.166 1.17881C147.036 1.13549 146.888 1.10455 146.72 1.08599C146.553 1.06124 146.414 1.04268 146.303 1.0303C146.185 1.01792 146.108 0.983891 146.071 0.928201C146.034 0.866322 146.015 0.78588 146.015 0.686875C146.015 0.618809 146.04 0.522897 146.089 0.399141C146.145 0.269196 146.225 0.204224 146.331 0.204224H150.517C150.622 0.204224 150.699 0.269196 150.749 0.399141C150.804 0.522897 150.832 0.618809 150.832 0.686875C150.832 0.915825 150.73 1.0303 150.526 1.0303C150.21 1.0303 149.889 1.08908 149.561 1.20665C149.233 1.32422 148.945 1.47273 148.698 1.65218L145.05 5.95891C145.341 6.15074 145.665 6.46632 146.024 6.90565C146.383 7.3388 146.751 7.82764 147.129 8.37217C147.513 8.91051 147.884 9.44267 148.243 9.96863C148.602 10.4946 148.92 10.9432 149.199 11.3145C149.428 11.6177 149.715 11.8931 150.062 12.1406C150.408 12.3881 150.696 12.5242 150.925 12.549C151.055 12.5613 151.142 12.617 151.185 12.716C151.235 12.815 151.259 12.9357 151.259 13.078C151.259 13.1461 151.231 13.2142 151.176 13.2822C151.126 13.3441 151.049 13.375 150.944 13.375H148.382Z" fill="#1B2F5A"/>
<path d="M121.561 13.375C121.462 13.375 121.385 13.3286 121.329 13.2358C121.274 13.1368 121.246 13.0254 121.246 12.9016C121.246 12.7593 121.271 12.6696 121.32 12.6325C121.363 12.5953 121.45 12.5706 121.58 12.5582C121.735 12.5397 121.902 12.5304 122.081 12.5304C122.267 12.5242 122.44 12.4778 122.601 12.3911C122.768 12.2983 122.901 12.1158 123 11.8435L127.251 0H128.736L132.867 11.8435C132.966 12.1158 133.096 12.2983 133.256 12.3911C133.417 12.4778 133.587 12.5242 133.767 12.5304C133.953 12.5304 134.12 12.5397 134.268 12.5582C134.398 12.5706 134.485 12.5953 134.528 12.6325C134.578 12.6696 134.602 12.7593 134.602 12.9016C134.602 12.9697 134.574 13.0656 134.519 13.1894C134.469 13.3131 134.392 13.375 134.287 13.375H129.637C129.531 13.375 129.451 13.3131 129.395 13.1894C129.346 13.0656 129.321 12.9697 129.321 12.9016C129.321 12.6974 129.423 12.583 129.627 12.5582C130.005 12.5397 130.311 12.5242 130.546 12.5118C130.781 12.4994 130.899 12.4221 130.899 12.2798C130.899 12.2365 130.89 12.1931 130.871 12.1498L129.618 8.39071L130.175 8.78982H124.875L125.423 8.39071L124.16 12.1498C124.148 12.1808 124.142 12.2179 124.142 12.2612C124.142 12.4159 124.272 12.4994 124.532 12.5118C124.798 12.518 125.119 12.5335 125.497 12.5582C125.701 12.583 125.803 12.6974 125.803 12.9016C125.803 12.9697 125.775 13.0656 125.72 13.1894C125.67 13.3131 125.593 13.375 125.488 13.375H121.561ZM125.432 8.39071L125.144 7.99159H129.896L129.618 8.39071L127.613 2.35757L125.432 8.39071Z" fill="#1B2F5A"/>
<path d="M99.1254 13.375C99.0202 13.375 98.9398 13.3132 98.8841 13.1894C98.8346 13.0656 98.8099 12.9697 98.8099 12.9017C98.8099 12.6975 98.912 12.583 99.1162 12.5582C99.4132 12.5335 99.6947 12.4809 99.9608 12.4005C100.233 12.3138 100.369 12.1684 100.369 11.9642L100.378 1.92135C100.378 1.65527 100.307 1.46345 100.165 1.34588C100.023 1.22831 99.8494 1.15096 99.6452 1.11384C99.4472 1.07052 99.2523 1.03958 99.0605 1.02102C98.9305 1.00864 98.8408 0.983891 98.7913 0.946764C98.748 0.903449 98.7263 0.813726 98.7263 0.677593C98.7263 0.609527 98.7511 0.513616 98.8006 0.389859C98.8563 0.266102 98.9367 0.204224 99.0419 0.204224H103.803C103.909 0.204224 103.986 0.266102 104.035 0.389859C104.091 0.513616 104.119 0.609527 104.119 0.677593C104.119 0.906543 104.017 1.02102 103.813 1.02102C103.609 1.02102 103.386 1.04577 103.144 1.09527C102.903 1.14478 102.696 1.2345 102.523 1.36444C102.355 1.4882 102.272 1.66455 102.272 1.8935L102.263 11.7322C102.263 12.0354 102.368 12.2303 102.578 12.3169C102.789 12.3974 103.008 12.4376 103.237 12.4376H105.883C106.173 12.4376 106.452 12.2705 106.718 11.9364C106.99 11.596 107.238 11.1814 107.46 10.6926C107.683 10.2038 107.869 9.73659 108.017 9.29107C108.054 9.17968 108.113 9.10234 108.194 9.05902C108.274 9.00952 108.364 8.98477 108.463 8.98477C108.58 8.98477 108.673 9.01261 108.741 9.0683C108.816 9.11781 108.847 9.19515 108.834 9.30035L108.379 13.375H99.1254Z" fill="#1B2F5A"/>
<path d="M79.8232 13.375C79.718 13.375 79.6376 13.3132 79.5819 13.1894C79.5324 13.0656 79.5076 12.9697 79.5076 12.9017C79.5076 12.6913 79.6097 12.5768 79.8139 12.5582C80.1109 12.5335 80.3925 12.4809 80.6585 12.4005C80.9308 12.3138 81.0669 12.1684 81.0669 11.9642L81.0762 1.92135C81.0762 1.65527 81.0051 1.46345 80.8627 1.34588C80.7204 1.22831 80.5472 1.15096 80.343 1.11384C80.145 1.07052 79.95 1.03958 79.7582 1.02102C79.6283 1.00864 79.5385 0.983891 79.489 0.946764C79.4457 0.903449 79.4241 0.813726 79.4241 0.677593C79.4241 0.609527 79.4488 0.513616 79.4983 0.389859C79.554 0.266102 79.6345 0.204224 79.7397 0.204224H84.3063C84.4115 0.204224 84.4888 0.266102 84.5383 0.389859C84.594 0.513616 84.6219 0.609527 84.6219 0.677593C84.6219 0.88798 84.5198 1.00245 84.3156 1.02102C84.0185 1.04577 83.7184 1.10146 83.4152 1.18809C83.1182 1.26853 82.9697 1.41085 82.9697 1.61505L82.9604 11.6579C82.9604 11.924 83.0378 12.1158 83.1925 12.2334C83.3533 12.351 83.5421 12.4283 83.7587 12.4654C83.9814 12.5026 84.1856 12.5335 84.3712 12.5582C84.5012 12.5706 84.5878 12.5954 84.6311 12.6325C84.6806 12.6696 84.7054 12.7593 84.7054 12.9017C84.7054 12.9697 84.6775 13.0656 84.6219 13.1894C84.5724 13.3132 84.495 13.375 84.3898 13.375H79.8232ZM88.2603 13.375C88.1551 13.375 88.0747 13.3132 88.019 13.1894C87.9695 13.0656 87.9447 12.9697 87.9447 12.9017C87.9447 12.6913 88.0468 12.5768 88.251 12.5582C88.548 12.5335 88.8451 12.4809 89.1421 12.4005C89.4453 12.3138 89.5969 12.1684 89.5969 11.9642L89.6062 1.92135C89.6062 1.65527 89.5257 1.46345 89.3648 1.34588C89.2101 1.22831 89.0245 1.15096 88.8079 1.11384C88.5914 1.07052 88.3872 1.03958 88.1953 1.02102C88.0654 1.00864 87.9757 0.983891 87.9262 0.946764C87.8828 0.903449 87.8612 0.813726 87.8612 0.677593C87.8612 0.609527 87.8859 0.513616 87.9354 0.389859C87.9911 0.266102 88.0716 0.204224 88.1768 0.204224H92.8362C92.9414 0.204224 93.0188 0.266102 93.0683 0.389859C93.1239 0.513616 93.1518 0.609527 93.1518 0.677593C93.1518 0.88798 93.0497 1.00245 92.8455 1.02102C92.5485 1.04577 92.2484 1.10146 91.9452 1.18809C91.6481 1.26853 91.4996 1.41085 91.4996 1.61505L91.4904 11.6579C91.4904 11.924 91.5677 12.1158 91.7224 12.2334C91.8833 12.351 92.072 12.4283 92.2886 12.4654C92.5114 12.5026 92.7155 12.5335 92.9012 12.5582C93.0311 12.5706 93.1178 12.5954 93.1611 12.6325C93.2106 12.6696 93.2353 12.7593 93.2353 12.9017C93.2353 12.9697 93.2075 13.0656 93.1518 13.1894C93.1023 13.3132 93.0249 13.375 92.9197 13.375H88.2603ZM82.5613 6.98919V5.98676H90.0146V6.98919H82.5613Z" fill="#1B2F5A"/>
<path d="M62.0431 13.375C61.9441 13.375 61.8668 13.3286 61.8111 13.2358C61.7554 13.1368 61.7275 13.0254 61.7275 12.9016C61.7275 12.7593 61.7523 12.6696 61.8018 12.6325C61.8451 12.5953 61.9317 12.5706 62.0617 12.5582C62.2164 12.5397 62.3835 12.5304 62.5629 12.5304C62.7485 12.5242 62.9218 12.4778 63.0827 12.3911C63.2497 12.2983 63.3828 12.1158 63.4818 11.8435L67.7328 0H69.2179L73.3483 11.8435C73.4473 12.1158 73.5773 12.2983 73.7381 12.3911C73.899 12.4778 74.0692 12.5242 74.2486 12.5304C74.4343 12.5304 74.6013 12.5397 74.7498 12.5582C74.8798 12.5706 74.9664 12.5953 75.0097 12.6325C75.0592 12.6696 75.084 12.7593 75.084 12.9016C75.084 12.9697 75.0561 13.0656 75.0005 13.1894C74.951 13.3131 74.8736 13.375 74.7684 13.375H70.1182C70.0131 13.375 69.9326 13.3131 69.8769 13.1894C69.8274 13.0656 69.8027 12.9697 69.8027 12.9016C69.8027 12.6974 69.9048 12.583 70.109 12.5582C70.4864 12.5397 70.7927 12.5242 71.0279 12.5118C71.263 12.4994 71.3806 12.4221 71.3806 12.2798C71.3806 12.2365 71.3713 12.1931 71.3527 12.1498L70.0997 8.39071L70.6566 8.78982H65.3567L65.9043 8.39071L64.642 12.1498C64.6296 12.1808 64.6234 12.2179 64.6234 12.2612C64.6234 12.4159 64.7534 12.4994 65.0133 12.5118C65.2794 12.518 65.6011 12.5335 65.9786 12.5582C66.1828 12.583 66.2849 12.6974 66.2849 12.9016C66.2849 12.9697 66.257 13.0656 66.2013 13.1894C66.1518 13.3131 66.0745 13.375 65.9693 13.375H62.0431ZM65.9136 8.39071L65.6259 7.99159H70.3781L70.0997 8.39071L68.0948 2.35757L65.9136 8.39071Z" fill="#1B2F5A"/>
<path d="M44.4763 13.375C44.3711 13.375 44.2906 13.3132 44.2349 13.1894C44.1854 13.0656 44.1607 12.9697 44.1607 12.9017C44.1607 12.6975 44.2628 12.583 44.467 12.5582C44.665 12.5397 44.8754 12.5087 45.0981 12.4654C45.3209 12.4221 45.5096 12.3479 45.6643 12.2427C45.8252 12.1313 45.9057 11.9766 45.9057 11.7786V1.92135C45.9057 1.65527 45.819 1.46345 45.6458 1.34588C45.4787 1.22831 45.2776 1.15096 45.0425 1.11384C44.8135 1.07052 44.6031 1.03958 44.4113 1.02102C44.2813 1.00864 44.1916 0.983891 44.1421 0.946764C44.0988 0.903449 44.0771 0.813726 44.0771 0.677593C44.0771 0.609527 44.1019 0.513616 44.1514 0.389859C44.2071 0.266102 44.2875 0.204224 44.3927 0.204224H47.53L54.7419 10.4698H54.8533V1.92135C54.8533 1.65527 54.7512 1.46345 54.547 1.34588C54.349 1.22831 54.12 1.15096 53.8601 1.11384C53.6002 1.07052 53.3744 1.03958 53.1826 1.02102C53.0526 1.00864 52.9629 0.983891 52.9134 0.946764C52.8701 0.903449 52.8484 0.813726 52.8484 0.677593C52.8484 0.609527 52.8732 0.513616 52.9227 0.389859C52.9784 0.266102 53.0588 0.204224 53.164 0.204224H57.3872C57.4924 0.204224 57.5697 0.266102 57.6192 0.389859C57.6749 0.513616 57.7028 0.609527 57.7028 0.677593C57.7028 0.881792 57.6007 0.996267 57.3965 1.02102C57.2108 1.03958 56.9881 1.07052 56.7282 1.11384C56.4745 1.15096 56.2517 1.22831 56.0599 1.34588C55.8681 1.46345 55.7722 1.65527 55.7722 1.92135V12.3262C55.7722 12.4438 55.7784 12.5428 55.7907 12.6232C55.8031 12.6975 55.8155 12.8243 55.8279 13.0038C55.8464 13.2637 55.7907 13.4369 55.6608 13.5235C55.5308 13.6102 55.4009 13.6535 55.2709 13.6535C55.0482 13.6535 54.8811 13.5854 54.7697 13.4493L46.9823 2.66389H46.8245V11.6579C46.8245 11.924 46.9174 12.1158 47.103 12.2334C47.2886 12.351 47.5052 12.4283 47.7527 12.4654C48.0002 12.5026 48.2168 12.5335 48.4024 12.5582C48.5324 12.5706 48.619 12.5954 48.6623 12.6325C48.7118 12.6696 48.7366 12.7593 48.7366 12.9017C48.7366 12.9697 48.7087 13.0656 48.6531 13.1894C48.6036 13.3132 48.5262 13.375 48.421 13.375H44.4763Z" fill="#1B2F5A"/>
<path d="M17.6967 13.375C17.5915 13.375 17.5111 13.3132 17.4554 13.1894C17.4059 13.0656 17.3811 12.9697 17.3811 12.9017C17.3811 12.6975 17.4832 12.583 17.6874 12.5582C17.8855 12.5397 18.0958 12.5087 18.3186 12.4654C18.5414 12.4221 18.7301 12.3479 18.8848 12.2427C19.0457 12.1313 19.1261 11.9766 19.1261 11.7786V1.92135C19.1261 1.65527 19.0395 1.46345 18.8662 1.34588C18.6992 1.22831 18.498 1.15096 18.2629 1.11384C18.034 1.07052 17.8236 1.03958 17.6318 1.02102C17.5018 1.00864 17.4121 0.983891 17.3626 0.946764C17.3193 0.903449 17.2976 0.813726 17.2976 0.677593C17.2976 0.609527 17.3224 0.513616 17.3719 0.389859C17.4276 0.266102 17.508 0.204224 17.6132 0.204224H20.7504L27.9623 10.4698H28.0737V1.92135C28.0737 1.65527 27.9716 1.46345 27.7674 1.34588C27.5694 1.22831 27.3405 1.15096 27.0806 1.11384C26.8207 1.07052 26.5948 1.03958 26.403 1.02102C26.2731 1.00864 26.1833 0.983891 26.1338 0.946764C26.0905 0.903449 26.0689 0.813726 26.0689 0.677593C26.0689 0.609527 26.0936 0.513616 26.1431 0.389859C26.1988 0.266102 26.2793 0.204224 26.3844 0.204224H30.6076C30.7128 0.204224 30.7902 0.266102 30.8397 0.389859C30.8954 0.513616 30.9232 0.609527 30.9232 0.677593C30.9232 0.881792 30.8211 0.996267 30.6169 1.02102C30.4313 1.03958 30.2085 1.07052 29.9486 1.11384C29.6949 1.15096 29.4722 1.22831 29.2804 1.34588C29.0885 1.46345 28.9926 1.65527 28.9926 1.92135V12.3262C28.9926 12.4438 28.9988 12.5428 29.0112 12.6232C29.0236 12.6975 29.0359 12.8243 29.0483 13.0038C29.0669 13.2637 29.0112 13.4369 28.8812 13.5235C28.7513 13.6102 28.6214 13.6535 28.4914 13.6535C28.2686 13.6535 28.1016 13.5854 27.9902 13.4493L20.2028 2.66389H20.045V11.6579C20.045 11.924 20.1378 12.1158 20.3235 12.2334C20.5091 12.351 20.7257 12.4283 20.9732 12.4654C21.2207 12.5026 21.4373 12.5335 21.6229 12.5582C21.7529 12.5706 21.8395 12.5954 21.8828 12.6325C21.9323 12.6696 21.9571 12.7593 21.9571 12.9017C21.9571 12.9697 21.9292 13.0656 21.8735 13.1894C21.824 13.3132 21.7467 13.375 21.6415 13.375H17.6967Z" fill="#1B2F5A"/>
<path d="M0.31558 13.375C0.216574 13.375 0.139226 13.3286 0.0835358 13.2358C0.0278453 13.1368 0 13.0254 0 12.9016C0 12.7593 0.0247514 12.6696 0.0742541 12.6325C0.117569 12.5953 0.204199 12.5706 0.334143 12.5582C0.488839 12.5397 0.655911 12.5304 0.835358 12.5304C1.02099 12.5242 1.19425 12.4778 1.35514 12.3911C1.52221 12.2983 1.65525 12.1158 1.75425 11.8435L6.0053 0H7.49038L11.6208 11.8435C11.7198 12.1158 11.8497 12.2983 12.0106 12.3911C12.1715 12.4778 12.3416 12.5242 12.5211 12.5304C12.7067 12.5304 12.8738 12.5397 13.0223 12.5582C13.1523 12.5706 13.2389 12.5953 13.2822 12.6325C13.3317 12.6696 13.3565 12.7593 13.3565 12.9016C13.3565 12.9697 13.3286 13.0656 13.2729 13.1894C13.2234 13.3131 13.1461 13.375 13.0409 13.375H8.39071C8.28552 13.375 8.20507 13.3131 8.14938 13.1894C8.09988 13.0656 8.07513 12.9697 8.07513 12.9016C8.07513 12.6974 8.17723 12.583 8.38143 12.5582C8.75889 12.5397 9.06518 12.5242 9.30032 12.5118C9.53546 12.4994 9.65303 12.4221 9.65303 12.2798C9.65303 12.2365 9.64375 12.1931 9.62518 12.1498L8.37215 8.39071L8.92905 8.78982H3.62917L4.17679 8.39071L2.91447 12.1498C2.9021 12.1808 2.89591 12.2179 2.89591 12.2612C2.89591 12.4159 3.02585 12.4994 3.28574 12.5118C3.55182 12.518 3.87359 12.5335 4.25105 12.5582C4.45524 12.583 4.55734 12.6974 4.55734 12.9016C4.55734 12.9697 4.5295 13.0656 4.47381 13.1894C4.4243 13.3131 4.34696 13.375 4.24176 13.375H0.31558ZM4.18607 8.39071L3.89834 7.99159H8.6506L8.37215 8.39071L6.36729 2.35757L4.18607 8.39071Z" fill="#1B2F5A"/>
<path d="M137.579 39.08C136.981 39.08 136.553 38.9232 136.296 38.6095C136.04 38.2674 135.911 37.8397 135.911 37.3264C135.911 36.5566 136.182 35.6869 136.724 34.7174C137.266 33.7195 137.964 32.6787 138.82 31.5952C139.704 30.5117 140.616 29.4424 141.557 28.3874C142.527 27.3324 143.439 26.363 144.294 25.4791C143.867 25.4791 143.396 25.5931 142.883 25.8212C142.398 26.0493 141.899 26.3202 141.386 26.6338C140.588 27.1756 139.704 27.8884 138.734 28.7724C137.793 29.6563 136.852 30.6115 135.911 31.638C134.97 32.636 134.086 33.6054 133.26 34.5464C132.803 35.2592 132.39 35.9293 132.019 36.5566C131.649 37.1839 131.392 37.7256 131.249 38.1818C130.679 37.9537 130.394 37.5403 130.394 36.9415C130.394 36.4853 130.522 35.9578 130.779 35.359C131.292 34.2185 131.962 33.0779 132.789 31.9374C133.616 30.7968 134.5 29.6848 135.441 28.6013C136.41 27.4893 137.309 26.4343 138.135 25.4363C137.622 25.4363 136.981 25.6644 136.211 26.1206C135.441 26.5483 134.671 27.0473 133.901 27.6176C133.16 28.1878 132.561 28.7153 132.105 29.2001C131.506 29.8274 130.793 30.6115 129.966 31.5524C129.168 32.4934 128.37 33.4343 127.571 34.3753C126.801 35.2877 126.174 36.0718 125.689 36.7276C125.176 37.412 124.834 37.9395 124.663 38.3102C124.463 38.6808 124.335 38.9089 124.278 38.9945C123.822 38.9945 123.594 38.7236 123.594 38.1818C123.594 37.6116 123.779 36.9272 124.15 36.1289C124.492 35.3305 124.791 34.7032 125.048 34.247C125.789 32.9924 126.63 31.6807 127.571 30.3121C128.541 28.9149 129.439 27.6888 130.266 26.6338C130.693 26.0636 131.15 25.6501 131.634 25.3935C132.119 25.1084 132.533 24.9373 132.875 24.8803C133.217 24.7947 133.388 24.752 133.388 24.752C133.217 25.0086 132.86 25.5361 132.319 26.3345C131.805 27.1328 131.207 28.0738 130.522 29.1573C129.838 30.2123 129.139 31.3101 128.427 32.4506C129.567 31.0535 130.765 29.7133 132.019 28.4302C133.274 27.1471 134.471 26.1776 135.612 25.5218C136.553 25.0086 137.437 24.752 138.264 24.752C138.92 24.752 139.247 24.9801 139.247 25.4363C139.247 25.864 139.019 26.3772 138.563 26.976C138.364 27.2326 138.093 27.6033 137.75 28.088C137.408 28.5728 137.095 29.0147 136.81 29.4139C136.553 29.8131 136.425 30.0127 136.425 30.0127L136.168 30.3976C137.08 29.4567 138.007 28.5728 138.948 27.7459C139.889 26.919 140.801 26.2204 141.685 25.6501C142.056 25.3935 142.441 25.1797 142.84 25.0086C143.239 24.8375 143.653 24.752 144.081 24.752C144.85 24.752 145.235 25.0513 145.235 25.6501C145.235 26.1063 144.964 26.6481 144.423 27.2754C143.767 28.0453 143.054 28.9007 142.284 29.8416C141.514 30.7826 140.773 31.7378 140.06 32.7072C139.376 33.6767 138.805 34.5749 138.349 35.4018C137.922 36.2287 137.708 36.8987 137.708 37.412C137.708 37.6971 137.779 37.911 137.922 38.0535C138.093 38.1676 138.235 38.2246 138.349 38.2246C138.777 38.2246 139.247 38.0535 139.761 37.7114C140.302 37.3692 140.816 36.97 141.3 36.5138C141.814 36.0291 142.256 35.5728 142.626 35.1451C143.025 34.7174 143.282 34.4323 143.396 34.2897C143.51 34.2897 143.567 34.3753 143.567 34.5464C143.567 34.803 143.51 35.0026 143.396 35.1451C142.997 35.5728 142.469 36.1004 141.814 36.7276C141.158 37.3549 140.459 37.911 139.718 38.3957C138.977 38.8519 138.264 39.08 137.579 39.08Z" fill="#1B2F5A"/>
<path d="M128.513 22.9556C127.943 22.9556 127.658 22.7275 127.658 22.2713C127.658 22.1287 127.701 21.9719 127.786 21.8008C127.929 21.4586 128.171 21.1592 128.513 20.9026C128.884 20.6175 129.241 20.4749 129.583 20.4749C130.124 20.4749 130.395 20.703 130.395 21.1592C130.395 21.5869 130.196 21.9861 129.797 22.3568C129.397 22.7275 128.97 22.9271 128.513 22.9556ZM119.232 39.1228C118.462 39.1228 117.921 38.9232 117.607 38.524C117.265 38.0963 117.094 37.5688 117.094 36.9415C117.094 36.1146 117.35 35.2307 117.864 34.2897C118.348 33.3203 118.961 32.3651 119.703 31.4241C120.444 30.4547 121.2 29.5565 121.97 28.7296C122.739 27.8742 123.41 27.1756 123.98 26.6338C124.522 26.0921 125.078 25.6929 125.648 25.4363C126.218 25.1797 126.703 25.0086 127.102 24.923C127.53 24.809 127.744 24.7519 127.744 24.7519C127.116 25.4648 126.261 26.477 125.177 27.7886C124.094 29.1003 123.025 30.4974 121.97 31.9801C121.884 32.0942 121.684 32.3793 121.371 32.8355C121.057 33.2918 120.701 33.8193 120.302 34.418C119.931 35.0168 119.603 35.6014 119.318 36.1716C119.061 36.7419 118.933 37.1981 118.933 37.5403C118.933 38.082 119.218 38.3529 119.788 38.3529C120.216 38.3529 120.672 38.1961 121.157 37.8824C121.67 37.5688 122.183 37.1839 122.697 36.7276C123.21 36.2714 123.666 35.8295 124.065 35.4018C124.493 34.9455 124.821 34.5749 125.049 34.2897C125.163 34.2897 125.22 34.3753 125.22 34.5464C125.22 34.803 125.163 35.0026 125.049 35.1451C123.966 36.3997 122.982 37.3835 122.098 38.0963C121.242 38.7806 120.287 39.1228 119.232 39.1228Z" fill="#1B2F5A"/>
<path d="M104.607 39.1228C104.122 39.0943 103.88 38.7807 103.88 38.1819C103.88 37.6972 104.022 37.0984 104.308 36.3855C104.593 35.6442 104.949 34.9028 105.377 34.1615C106.346 32.5362 107.53 30.7826 108.927 28.9007C110.352 26.9903 111.821 25.2082 113.332 23.5544C114.672 22.0717 116.126 20.7316 117.695 19.534C119.263 18.3365 120.902 17.4953 122.613 17.0106C122.87 16.925 123.169 16.8537 123.511 16.7967C123.854 16.7397 124.21 16.7112 124.581 16.7112C125.265 16.7112 125.85 16.811 126.334 17.0106C126.562 17.1246 126.791 17.2815 127.019 17.481C127.247 17.6521 127.404 17.9088 127.489 18.2509C127.175 17.9943 126.819 17.809 126.42 17.6949C126.021 17.5523 125.536 17.481 124.966 17.481C123.854 17.481 122.713 17.809 121.544 18.4648C120.403 19.0921 119.306 19.8619 118.251 20.7744C117.224 21.6868 116.312 22.5992 115.513 23.5117C114.744 24.3956 114.145 25.0942 113.717 25.6074C112.434 27.1471 111.336 28.5728 110.424 29.8844C109.511 31.1961 108.784 32.2653 108.242 33.0922C108.898 32.4364 109.611 31.7378 110.381 30.9965C111.179 30.2551 112.035 29.4853 112.947 28.6869C113.574 28.1736 114.273 27.6176 115.043 27.0188C115.813 26.3915 116.625 25.8498 117.481 25.3936C118.336 24.9373 119.206 24.7092 120.09 24.7092C120.489 24.7092 120.774 24.809 120.945 25.0086C121.116 25.1797 121.202 25.3936 121.202 25.6502C121.202 25.9923 121.074 26.3203 120.817 26.6339C120.617 26.4058 120.389 26.2632 120.133 26.2062C119.905 26.1207 119.634 26.0779 119.32 26.0779C118.579 26.0779 117.809 26.2775 117.01 26.6767C116.241 27.0473 115.684 27.361 115.342 27.6176L114.915 27.9598C114.715 28.416 114.458 29.0433 114.145 29.8417C113.831 30.6401 113.517 31.5097 113.204 32.4507C112.919 33.3631 112.676 34.247 112.477 35.1024C112.277 35.9293 112.177 36.6136 112.177 37.1554C112.177 37.5546 112.234 37.8397 112.348 38.0108C112.462 38.1534 112.619 38.2247 112.819 38.2247C113.247 38.2247 113.717 38.0536 114.23 37.7114C114.772 37.3693 115.285 36.9701 115.77 36.5139C116.283 36.0291 116.725 35.5729 117.096 35.1452C117.495 34.7175 117.752 34.4324 117.866 34.2898C117.98 34.2898 118.037 34.3753 118.037 34.5464C118.037 34.803 117.98 35.0026 117.866 35.1452C117.467 35.5729 116.968 36.1004 116.369 36.7277C115.77 37.355 115.1 37.911 114.359 38.3957C113.646 38.852 112.876 39.0801 112.049 39.0801C111.393 39.0801 110.937 38.8662 110.68 38.4385C110.452 37.9823 110.338 37.3978 110.338 36.6849C110.338 36.0576 110.481 35.302 110.766 34.4181C111.08 33.5342 111.422 32.6645 111.792 31.8091C112.192 30.9252 112.519 30.2124 112.776 29.6706C111.208 30.9822 109.782 32.3081 108.499 33.6482C107.244 34.9884 106.261 36.2002 105.548 37.2837C105.348 37.6259 105.177 37.9395 105.035 38.2247C104.892 38.5098 104.778 38.7522 104.693 38.9518L104.607 39.1228Z" fill="#1B2F5A"/>
<path d="M92.779 39.08C91.724 39.08 91.1965 38.4812 91.1965 37.2836C91.1965 36.5993 91.3961 35.7867 91.7953 34.8457C92.1945 33.8763 92.7933 32.864 93.5917 31.809C94.1619 31.0962 94.8605 30.3406 95.6874 29.5422C96.5143 28.7153 97.4125 27.9312 98.382 27.1898C99.3799 26.4485 100.392 25.8497 101.419 25.3935C102.445 24.9087 103.443 24.6664 104.413 24.6664C104.84 24.6664 105.14 24.7377 105.311 24.8802C105.482 24.9943 105.596 25.1226 105.653 25.2652C105.71 25.3792 105.71 25.4648 105.653 25.5218C105.624 25.5788 105.582 25.5931 105.525 25.5646C105.411 25.5075 105.182 25.479 104.84 25.479C103.814 25.479 102.588 25.978 101.162 26.976C99.7649 27.9454 98.3819 29.2143 97.0133 30.7825C96.0438 31.8661 95.2455 32.9353 94.6182 33.9903C93.9909 35.0168 93.5774 35.8722 93.3778 36.5565C93.3208 36.7846 93.2923 36.9842 93.2923 37.1553C93.2923 37.5545 93.4491 37.7541 93.7628 37.7541C93.9623 37.7541 94.2332 37.6686 94.5754 37.4975C94.9176 37.2979 95.3595 36.97 95.9013 36.5138C96.7567 35.7724 97.5978 34.9028 98.4247 33.9048C99.2801 32.9068 100.121 31.8946 100.948 30.8681C101.775 29.8131 102.573 28.8436 103.343 27.9597C104.142 27.0758 104.897 26.4057 105.61 25.9495C106.523 25.3507 107.15 25.0085 107.492 24.923C107.863 24.8375 108.162 24.7804 108.39 24.7519C108.248 24.923 107.934 25.3222 107.449 25.9495C106.965 26.5768 106.451 27.2469 105.91 27.9597C105.368 28.644 104.926 29.2143 104.584 29.6705C104.07 30.4119 103.514 31.2102 102.916 32.0657C102.345 32.9211 101.818 33.7337 101.333 34.5036C100.877 35.2449 100.563 35.858 100.392 36.3427C100.25 36.8274 100.178 37.1838 100.178 37.4119C100.178 37.8682 100.364 38.0963 100.734 38.0963C100.991 38.0963 101.29 37.9965 101.632 37.7969C102.003 37.5688 102.374 37.3121 102.745 37.027C103.229 36.6278 103.685 36.2144 104.113 35.7867C104.541 35.3305 104.983 34.8315 105.439 34.2897C105.553 34.2897 105.61 34.3753 105.61 34.5463C105.61 34.803 105.553 35.0025 105.439 35.1451C105.068 35.5728 104.612 36.0433 104.07 36.5565C103.557 37.0698 103.044 37.526 102.531 37.9252C102.16 38.2388 101.732 38.5097 101.248 38.7378C100.763 38.9659 100.292 39.08 99.8361 39.08C99.1803 39.08 98.7241 38.9232 98.4675 38.6095C98.2109 38.2959 98.0826 37.8967 98.0826 37.4119C98.0826 36.8417 98.2109 36.2286 98.4675 35.5728C98.7241 34.8885 99.0092 34.2469 99.3229 33.6482C98.9522 34.1044 98.4817 34.6604 97.9115 35.3162C97.3412 35.9435 96.828 36.471 96.3717 36.8987C95.7444 37.469 95.1457 37.9822 94.5754 38.4384C94.0051 38.8661 93.4063 39.08 92.779 39.08Z" fill="#1B2F5A"/>
<path d="M66.7628 40.3631C65.6508 40.3631 64.61 40.1921 63.6405 39.8499C62.6996 39.5077 61.944 38.966 61.3737 38.2246C60.8034 37.4548 60.5183 36.4568 60.5183 35.2307C60.5183 34.0901 60.8034 33.0066 61.3737 31.9801C61.9725 30.9251 62.7424 29.9842 63.6833 29.1573C64.6528 28.3304 65.722 27.6746 66.8911 27.1899C68.0887 26.7051 69.2862 26.4628 70.4838 26.4628C70.7119 26.4628 70.8402 26.5198 70.8687 26.6339C70.8972 26.7194 70.8402 26.7622 70.6977 26.7622C69.7282 26.7622 68.716 27.0045 67.661 27.4893C66.6345 27.9455 65.6793 28.587 64.7953 29.4139C63.9399 30.2123 63.2414 31.1105 62.6996 32.1085C62.1578 33.1064 61.887 34.1187 61.887 35.1451C61.887 36.7419 62.3004 37.8967 63.1273 38.6095C63.9827 39.2939 64.9949 39.636 66.164 39.636C67.0764 39.636 68.0174 39.4507 68.9868 39.08C69.9848 38.7379 70.9115 38.2531 71.7669 37.6258C73.6773 36.1146 75.3881 34.3753 76.8994 32.4079C78.4106 30.4404 79.936 28.4587 81.4758 26.4628C82.5023 25.1797 83.4717 23.9393 84.3842 22.7418C85.3251 21.5157 86.4086 20.3324 87.6347 19.1918C88.1765 18.6786 88.7467 18.1938 89.3455 17.7376C89.9728 17.2814 90.5859 16.9107 91.1846 16.6256C89.3313 16.5115 87.3781 16.3405 85.3251 16.1123C83.2721 15.8557 81.319 15.7274 79.4656 15.7274C77.6122 15.7274 75.8871 15.9555 74.2904 16.4117C72.7221 16.8394 71.5245 17.6378 70.6977 18.8069C70.2129 19.4912 69.9706 20.1613 69.9706 20.8171C69.9706 21.2733 70.0704 21.644 70.2699 21.9291C70.3555 22.0432 70.4695 22.1715 70.6121 22.314C70.7547 22.4281 70.883 22.4851 70.997 22.4851C70.883 22.5992 70.7404 22.6562 70.5693 22.6562C70.3697 22.6562 70.1702 22.6134 69.9706 22.5279C69.7995 22.4138 69.6569 22.2998 69.5429 22.1857C69.2577 21.8721 69.0439 21.5157 68.9013 21.1165C68.7587 20.6888 68.6874 20.2753 68.6874 19.8761C68.6874 19.0778 68.8728 18.4077 69.2435 17.8659C70.7832 15.7559 73.3922 14.7009 77.0704 14.7009C77.8973 14.7009 78.7955 14.758 79.765 14.872C80.7629 14.9575 81.8179 15.0859 82.93 15.2569C83.4717 15.3425 84.1988 15.4423 85.1113 15.5563C86.0237 15.6419 87.0217 15.7274 88.1052 15.813C89.2172 15.87 90.3007 15.8985 91.3557 15.8985C92.6103 15.8985 93.7224 15.8272 94.6918 15.6846C95.6898 15.5421 96.3456 15.2997 96.6593 14.9575H96.7876C97.0157 14.9575 97.1297 15.0716 97.1297 15.2997C97.0442 15.6989 96.8303 16.0126 96.4882 16.2407C96.1745 16.4403 95.8324 16.5543 95.4617 16.5828C94.977 16.6398 94.4637 16.6826 93.9219 16.7111C93.4087 16.7111 92.8669 16.6969 92.2967 16.6684C91.1276 17.6378 89.9728 18.8069 88.8323 20.1755C87.6917 21.5157 86.5227 23.0126 85.3251 24.6664L83.4432 27.2326H89.9015C90.7855 26.1491 91.6979 25.0941 92.6388 24.0676C93.5798 23.0411 94.5065 22.0717 95.4189 21.1592C96.0462 20.5605 96.7305 19.9759 97.4719 19.4057C98.2132 18.8354 98.9403 18.3649 99.6532 17.9942C100.395 17.5951 101.036 17.3955 101.578 17.3955C101.207 17.6806 100.623 18.2081 99.8243 18.978C99.0544 19.7193 98.3416 20.4464 97.6857 21.1592C96.8018 22.1002 95.8038 23.2265 94.6918 24.5381C93.6083 25.8497 92.5248 27.1899 91.4413 28.5585C90.3863 29.9272 89.4311 31.2103 88.5757 32.4079C87.7202 33.6054 87.093 34.5891 86.6938 35.359C86.2375 36.1289 86.0094 36.8417 86.0094 37.4975C86.0094 38.0963 86.2518 38.3957 86.7365 38.3957C87.0217 38.3957 87.4351 38.2531 87.9769 37.968C88.8038 37.4833 89.5023 36.9558 90.0726 36.3855C90.6429 35.7867 91.2844 35.0881 91.9973 34.2897C92.1113 34.2897 92.1684 34.3753 92.1684 34.5464C92.1684 34.803 92.1113 35.0026 91.9973 35.1451C90.6857 36.6849 89.5879 37.7399 88.704 38.3102C87.8486 38.8519 86.8934 39.1228 85.8384 39.1228C85.1255 39.1228 84.6265 38.966 84.3414 38.6523C84.0563 38.3102 83.9137 37.8825 83.9137 37.3692C83.9137 36.913 84.0135 36.3997 84.2131 35.8295C84.4127 35.2592 84.6693 34.7032 84.9829 34.1614C85.5532 33.1635 86.209 32.1227 86.9504 31.0392C87.7202 29.9557 88.5329 28.8864 89.3883 27.8314H83.0155C82.0175 29.2286 80.9483 30.6685 79.8077 32.1512C78.6672 33.6054 77.4411 34.9598 76.1295 36.2144C74.8179 37.4405 73.3779 38.4385 71.8097 39.2083C70.2699 39.9782 68.5876 40.3631 66.7628 40.3631Z" fill="#1B2F5A"/>
</svg>
