<?xml version="1.0" encoding="UTF-8"?>
<svg id="Layer_2" data-name="Layer 2" xmlns="http://www.w3.org/2000/svg" viewBox="0 0 360.84 60.14">
  <defs>
    <style>
      .cls-1 {
        fill: #9ddbee;
      }
    </style>
  </defs>
  <g id="Layer_1-2" data-name="Layer 1">
    <g>
      <path class="cls-1" d="M83.55,24.56h0c1.86,0,3.36,1.51,3.36,3.37v4.29c0,1.86-1.51,3.37-3.36,3.37h0c-1.86,0-3.36-1.51-3.36-3.37v-4.29c0-1.86,1.51-3.37,3.36-3.37Z"/>
      <path class="cls-1" d="M96,14.03h0c1.86,0,3.36,1.51,3.36,3.37v25.34c0,1.86-1.51,3.37-3.36,3.37h0c-1.86,0-3.36-1.51-3.36-3.37v-25.34c0-1.86,1.51-3.37,3.36-3.37Z"/>
      <path class="cls-1" d="M105.47,3.51h5.95c.21,0,.39.17.39.39v52.35c0,.21-.17.39-.39.39h-5.95c-.21,0-.39-.17-.39-.39V3.9c0-.21.17-.39.39-.39Z"/>
      <rect class="cls-1" x="117.54" y="10.52" width="6.73" height="39.09" rx=".39" ry=".39"/>
      <rect class="cls-1" x="129.99" y="21.05" width="6.73" height="18.04" rx=".39" ry=".39"/>
      <rect class="cls-1" x="142.44" y="14.03" width="6.73" height="32.07" rx=".39" ry=".39"/>
      <rect class="cls-1" x="154.89" y="24.56" width="6.73" height="11.03" rx=".39" ry=".39"/>
      <rect class="cls-1" x="167.35" y="24.56" width="6.73" height="11.03" rx=".39" ry=".39"/>
      <rect class="cls-1" x="179.8" y="10.52" width="6.73" height="39.09" rx=".39" ry=".39"/>
      <path class="cls-1" d="M192.64,3.51h5.95c.21,0,.39.17.39.39v52.35c0,.21-.17.39-.39.39h-5.95c-.21,0-.39-.17-.39-.39V3.9c0-.21.17-.39.39-.39Z"/>
      <rect class="cls-1" x="204.7" y="3.51" width="6.73" height="53.12" rx=".39" ry=".39"/>
      <path class="cls-1" d="M217.53,0h5.95c.21,0,.39.17.39.39v59.36c0,.21-.17.39-.39.39h-5.95c-.21,0-.39-.17-.39-.39V.39C217.15.17,217.32,0,217.53,0Z"/>
      <path class="cls-1" d="M229.99,21.05h5.95c.21,0,.39.17.39.39v17.27c0,.21-.17.39-.39.39h-5.95c-.21,0-.39-.17-.39-.39v-17.27c0-.21.17-.39.39-.39Z"/>
      <path class="cls-1" d="M245.42,24.56h0c1.86,0,3.36,1.51,3.36,3.37v4.29c0,1.86-1.51,3.37-3.36,3.37h0c-1.86,0-3.36-1.51-3.36-3.37v-4.29c0-1.86,1.51-3.37,3.36-3.37Z"/>
      <path class="cls-1" d="M257.87,17.54h0c1.86,0,3.36,1.51,3.36,3.37v18.32c0,1.86-1.51,3.37-3.36,3.37h0c-1.86,0-3.36-1.51-3.36-3.37v-18.32c0-1.86,1.51-3.37,3.36-3.37Z"/>
      <path class="cls-1" d="M270.31,7.02h0c1.86,0,3.36,1.51,3.36,3.37v39.37c0,1.86-1.51,3.37-3.36,3.37h0c-1.86,0-3.36-1.51-3.36-3.37V10.38c0-1.86,1.51-3.37,3.36-3.37Z"/>
      <path class="cls-1" d="M282.77,10.52h0c1.86,0,3.36,1.51,3.36,3.37v32.36c0,1.86-1.51,3.37-3.36,3.37h0c-1.86,0-3.36-1.51-3.36-3.37V13.89c0-1.86,1.51-3.37,3.36-3.37Z"/>
      <path class="cls-1" d="M295.22,3.51h0c1.86,0,3.36,1.51,3.36,3.37v46.39c0,1.86-1.51,3.37-3.36,3.37h0c-1.86,0-3.36-1.51-3.36-3.37V6.88c0-1.86,1.51-3.37,3.36-3.37Z"/>
      <path class="cls-1" d="M307.67,0h0c1.86,0,3.36,1.51,3.36,3.37v53.4c0,1.86-1.51,3.37-3.36,3.37h0c-1.86,0-3.36-1.51-3.36-3.37V3.37C304.31,1.51,305.81,0,307.67,0Z"/>
      <path class="cls-1" d="M320.12,3.51h0c1.86,0,3.36,1.51,3.36,3.37v46.39c0,1.86-1.51,3.37-3.36,3.37h0c-1.86,0-3.36-1.51-3.36-3.37V6.88c0-1.86,1.51-3.37,3.36-3.37Z"/>
      <path class="cls-1" d="M332.57,14.03h0c1.86,0,3.36,1.51,3.36,3.37v25.34c0,1.86-1.51,3.37-3.36,3.37h0c-1.86,0-3.36-1.51-3.36-3.37v-25.34c0-1.86,1.51-3.37,3.36-3.37Z"/>
      <path class="cls-1" d="M345.03,7.02h0c1.86,0,3.36,1.51,3.36,3.37v39.37c0,1.86-1.51,3.37-3.36,3.37h0c-1.86,0-3.36-1.51-3.36-3.37V10.38c0-1.86,1.51-3.37,3.36-3.37Z"/>
      <path class="cls-1" d="M357.48,24.56h0c1.86,0,3.36,1.51,3.36,3.37v4.29c0,1.86-1.51,3.37-3.36,3.37h0c-1.86,0-3.36-1.51-3.36-3.37v-4.29c0-1.86,1.51-3.37,3.36-3.37Z"/>
      <path class="cls-1" d="M30.07,0c16.61,0,30.07,13.46,30.07,30.07s-13.46,30.07-30.07,30.07S0,46.68,0,30.07,13.46,0,30.07,0M43.83,43.3c.49-.81.29-1.86-.47-2.44-.15-.11-.31-.22-.48-.31-1.88-1.12-3.86-2.03-5.93-2.73-3.74-1.22-7.65-1.85-11.59-1.84-1.33.07-2.68.12-4.01.23-2.39.21-4.76.59-7.1,1.12-.18.04-.37.09-.54.16-.83.33-1.3,1.21-1.11,2.08.14.88.91,1.53,1.8,1.51.3,0,.59-.05.88-.12,2.85-.64,5.76-1.03,8.68-1.15,2.26-.09,4.53.03,6.77.37,3.63.53,7.12,1.76,10.27,3.62.16.1.33.19.5.27.85.38,1.85.06,2.34-.74M47.52,35.08c.66-1.1.31-2.52-.78-3.2l-.35-.21c-2.33-1.38-4.81-2.49-7.4-3.31-5.08-1.63-10.41-2.35-15.74-2.13-2.49.08-4.97.39-7.41.92-1,.22-2,.48-2.95.77-.94.3-1.58,1.16-1.58,2.14-.02.96.55,1.84,1.44,2.21.54.19,1.13.19,1.67,0,3.38-.98,6.88-1.47,10.4-1.46,2.66,0,5.31.25,7.93.74,3.34.6,6.57,1.67,9.6,3.19.66.34,1.3.72,1.95,1.08,1.09.67,2.51.34,3.2-.74M47.87,26.57c1.32.8,3.04.38,3.84-.94.27-.44.41-.95.41-1.47,0-.2,0-.4-.08-.6-.18-.79-.69-1.47-1.4-1.85-2.04-1.18-4.19-2.16-6.42-2.92-5.45-1.82-11.15-2.8-16.9-2.9-2.34-.07-4.68,0-7.02.21-2.2.18-4.38.52-6.54,1-.87.2-1.73.42-2.59.7-1.14.39-1.9,1.48-1.85,2.69.03,1.21.84,2.27,2,2.62.52.15,1.08.15,1.6,0,.87-.23,1.75-.47,2.64-.66,2.4-.5,4.83-.8,7.28-.91,2.14-.12,4.28-.12,6.41,0,2.05.12,4.1.36,6.12.72,2.91.49,5.76,1.28,8.51,2.36,1.38.58,2.72,1.25,4.01,2"/>
    </g>
  </g>
</svg>