<?xml version="1.0" encoding="UTF-8"?>
<svg id="Layer_2" data-name="Layer 2" xmlns="http://www.w3.org/2000/svg" viewBox="0 0 209.9 308.89">
  <defs>
<style>
  .cls-1 { fill: #603913; }
  .cls-2 { fill: #7cc243; }
  .cls-3 { fill: #f4c429; }
  .cls-4 { fill: #649a47; }

  .cls-3 {
    transform-origin: 104.95px 104.95px;
    animation: spin 9s linear infinite;
  }

  @keyframes spin {
    from { transform: rotate(0deg); }
    to   { transform: rotate(360deg); }
  }
</style>
  </defs>
  <g id="Layer_1-2" data-name="Layer 1">
    <g>
      <g>
        <path class="cls-2" d="M104.95,273.48s-6.84-68.42-71.77-54.73c0,0,0,67.54,71.77,54.73Z"/>
        <path class="cls-2" d="M104.95,249.43s6.84-68.42,71.77-54.73c0,0,0,67.54-71.77,54.73Z"/>
        <path class="cls-4" d="M104.95,308.89c-4.18,0-7.57-3.39-7.57-7.57v-163.36c0-4.18,3.39-7.57,7.57-7.57s7.57,3.39,7.57,7.57v163.36c0,4.18-3.39,7.57-7.57,7.57Z"/>
      </g>
      <g>
        <path class="cls-3" d="M209.9,104.95c0-11.71-23.49-21.2-52.48-21.2-.46,0-.9,0-1.36.01.32-.32.65-.61.98-.94,20.49-20.49,30.4-43.82,22.12-52.09-8.28-8.28-31.6,1.63-52.09,22.12-.32.32-.62.65-.94.98,0-.45.01-.9.01-1.36,0-28.98-9.49-52.48-21.2-52.48s-21.2,23.49-21.2,52.48c0,.46,0,.9.01,1.36-.32-.32-.61-.65-.94-.98-20.49-20.49-43.82-30.4-52.09-22.12-8.28,8.28,1.63,31.6,22.12,52.09.32.32.65.62.97.94-.45,0-.9-.01-1.36-.01-28.98,0-52.48,9.49-52.48,21.2s23.49,21.2,52.48,21.2c.46,0,.9,0,1.36-.01-.32.32-.65.61-.98.94-20.49,20.49-30.4,43.82-22.12,52.09,8.28,8.28,31.6-1.62,52.09-22.12.32-.32.62-.65.94-.97,0,.45-.01.9-.01,1.36,0,28.98,9.49,52.48,21.2,52.48s21.2-23.49,21.2-52.48c0-.46,0-.9-.01-1.36.32.32.61.65.94.97,20.49,20.49,43.82,30.4,52.09,22.12,8.28-8.28-1.62-31.6-22.12-52.09-.32-.32-.65-.62-.98-.94.45,0,.9.01,1.36.01,28.98,0,52.48-9.49,52.48-21.2Z"/>
        <circle class="cls-1" cx="104.95" cy="104.95" r="37.11"/>
      </g>
    </g>
  </g>
</svg>