<svg width="345" height="50" viewBox="0 0 345 50" fill="none" xmlns="http://www.w3.org/2000/svg">
<g clip-path="url(#clip0_195_110)">
<path d="M0.395837 13.723C0.29405 13.723 0.214883 13.6653 0.158335 13.5383C0.101787 13.4114 0.0791674 13.319 0.0791674 13.2498C0.0791674 13.042 0.180954 12.9266 0.384527 12.9035C0.576791 12.8805 0.791673 12.8574 1.01787 12.8112C1.24406 12.765 1.43632 12.6843 1.58335 12.5804C1.73037 12.4765 1.82085 12.3149 1.82085 12.1072V2.03133C1.82085 1.76587 1.73037 1.56966 1.56073 1.44271C1.39108 1.32729 1.18751 1.2465 0.961318 1.20033C0.723816 1.15417 0.520243 1.13108 0.327979 1.108C0.192264 1.09646 0.113096 1.07337 0.0678577 1.02721C0.0226192 0.981042 0 0.90025 0 0.761751C0 0.692501 0.0226192 0.588626 0.0791674 0.47321C0.135715 0.346252 0.214883 0.288544 0.316669 0.288544H3.44943L10.6537 10.7568H10.7668V2.03133C10.7668 1.76587 10.665 1.56966 10.4614 1.44271C10.2578 1.32729 10.0316 1.2465 9.77151 1.20033C9.51139 1.15417 9.2852 1.13108 9.09294 1.108C8.95722 1.09646 8.87805 1.07337 8.83281 1.02721C8.78758 0.981042 8.76496 0.90025 8.76496 0.761751C8.76496 0.692501 8.78758 0.588626 8.84412 0.47321C8.90067 0.346252 8.97984 0.288544 9.08163 0.288544H13.3001C13.4019 0.288544 13.4811 0.346252 13.5376 0.47321C13.5942 0.600168 13.6168 0.692501 13.6168 0.761751C13.6168 0.9695 13.515 1.08492 13.3114 1.108C13.1305 1.13108 12.9043 1.15417 12.6442 1.20033C12.384 1.2465 12.1578 1.32729 11.9769 1.44271C11.7846 1.55812 11.6941 1.75433 11.6941 2.03133V12.6496C11.6941 12.765 11.6941 12.8689 11.7168 12.9497C11.7394 13.0305 11.7394 13.1575 11.7507 13.3421C11.7733 13.6076 11.7168 13.7807 11.5811 13.873C11.4566 13.9654 11.3209 14.0115 11.1965 14.0115C10.9703 14.0115 10.812 13.9423 10.6989 13.8038L2.90657 2.79308H2.74824V11.9687C2.74824 12.2457 2.83872 12.4303 3.03098 12.5573C3.21193 12.6727 3.43812 12.7535 3.67563 12.7997C3.92444 12.8343 4.13932 12.8689 4.32028 12.892C4.44468 12.9035 4.53516 12.9266 4.5804 12.9728C4.62564 13.019 4.64825 13.0998 4.64825 13.2498C4.64825 13.319 4.62564 13.4114 4.56909 13.5383C4.51254 13.6653 4.43337 13.723 4.33158 13.723H0.395837Z" fill="#1B2F5A"/>
<path d="M24.9264 13.9885C23.9538 13.9885 23.083 13.8038 22.3139 13.4345C21.5449 13.0651 20.9002 12.5573 20.38 11.911C19.8484 11.2646 19.4526 10.5144 19.1698 9.66035C18.8984 8.80627 18.7627 7.89448 18.7627 6.92499C18.7627 5.63232 19.0115 4.45508 19.5091 3.41633C20.0068 2.36604 20.7306 1.53504 21.658 0.911795C22.5967 0.288547 23.7163 -0.0115356 25.0169 -0.0115356C26.3175 -0.0115356 27.4259 0.300088 28.3419 0.911795C29.258 1.53504 29.9479 2.36604 30.4342 3.41633C30.9092 4.46662 31.158 5.63232 31.158 6.92499C31.158 7.89448 31.0223 8.80627 30.7396 9.66035C30.4568 10.5144 30.0497 11.2646 29.5181 11.911C28.9866 12.5573 28.3306 13.0651 27.5616 13.4345C26.7925 13.8038 25.9217 13.9885 24.9377 13.9885H24.9264ZM24.9604 13.0998C25.9895 13.0998 26.7812 12.8574 27.3354 12.3611C27.8896 11.8648 28.2741 11.1608 28.5003 10.2374C28.7265 9.3141 28.8283 8.22919 28.8283 6.95961C28.8283 5.69003 28.7152 4.60512 28.489 3.69333C28.2628 2.78154 27.8669 2.08904 27.3015 1.60429C26.736 1.11954 25.933 0.87717 24.9151 0.87717C23.8973 0.87717 23.0943 1.11954 22.5401 1.60429C21.9746 2.08904 21.5901 2.78154 21.3752 3.69333C21.1603 4.60512 21.0585 5.69003 21.0585 6.95961C21.0585 8.22919 21.1716 9.32565 21.3978 10.2374C21.624 11.1608 22.0199 11.8648 22.5853 12.3611C23.1508 12.8574 23.9425 13.0998 24.9604 13.0998Z" fill="#1B2F5A"/>
<path d="M42.8635 13.9885C41.8908 13.9885 41.02 13.8038 40.2509 13.4345C39.4819 13.0651 38.8372 12.5573 38.317 11.911C37.7854 11.2646 37.3896 10.5144 37.1069 9.66035C36.8354 8.80627 36.6997 7.89448 36.6997 6.92499C36.6997 5.63232 36.9485 4.45508 37.4461 3.41633C37.9438 2.36604 38.6676 1.53504 39.595 0.911795C40.5337 0.288547 41.6533 -0.0115356 42.9539 -0.0115356C44.2545 -0.0115356 45.3629 0.300088 46.279 0.911795C47.195 1.53504 47.8849 2.36604 48.3712 3.41633C48.8462 4.46662 49.0951 5.63232 49.0951 6.92499C49.0951 7.89448 48.9593 8.80627 48.6766 9.66035C48.3939 10.5144 47.9867 11.2646 47.4552 11.911C46.9236 12.5573 46.2676 13.0651 45.4986 13.4345C44.7295 13.8038 43.8587 13.9885 42.8748 13.9885H42.8635ZM42.8974 13.0998C43.9266 13.0998 44.7182 12.8574 45.2724 12.3611C45.8266 11.8648 46.2111 11.1608 46.4373 10.2374C46.6635 9.3141 46.7653 8.22919 46.7653 6.95961C46.7653 5.69003 46.6522 4.60512 46.426 3.69333C46.1998 2.78154 45.804 2.08904 45.2385 1.60429C44.673 1.11954 43.87 0.87717 42.8521 0.87717C41.8343 0.87717 41.0313 1.11954 40.4771 1.60429C39.9116 2.08904 39.5271 2.78154 39.3122 3.69333C39.0973 4.60512 38.9956 5.69003 38.9956 6.95961C38.9956 8.22919 39.1087 9.32565 39.3348 10.2374C39.561 11.1608 39.9569 11.8648 40.5224 12.3611C41.0878 12.8574 41.8795 13.0998 42.8974 13.0998Z" fill="#1B2F5A"/>
<path d="M54.9649 13.723C54.8631 13.723 54.7839 13.6653 54.7274 13.5383C54.6708 13.4114 54.6482 13.319 54.6482 13.2498C54.6482 13.042 54.75 12.9266 54.9536 12.9035C55.2476 12.8805 55.553 12.8228 55.847 12.742C56.1524 12.6612 56.2994 12.5111 56.2994 12.3034V2.03133C56.2994 1.76587 56.2428 1.56967 56.0958 1.44271C55.9488 1.32729 55.7792 1.2465 55.5756 1.20033C55.372 1.15417 55.1797 1.13108 54.9875 1.108C54.8631 1.09646 54.7726 1.07338 54.7274 1.02721C54.6821 0.981043 54.6595 0.900251 54.6595 0.761751C54.6595 0.692502 54.6821 0.588627 54.7387 0.473211C54.7952 0.346253 54.8744 0.288545 54.9762 0.288545C55.3494 0.288545 55.6661 0.288545 55.9375 0.288545C56.1976 0.288545 56.4577 0.288545 56.7065 0.288545C57.2268 0.288545 57.6339 0.288545 57.9393 0.265461C58.2447 0.242378 58.5387 0.242378 58.8328 0.219295C59.1268 0.207753 59.5113 0.196211 59.9863 0.207753C60.8572 0.207753 61.6488 0.334711 62.3614 0.565544C63.0739 0.796376 63.6393 1.16571 64.0578 1.68508C64.4763 2.20446 64.6798 2.9085 64.6798 3.78566C64.6798 4.42045 64.5667 4.98599 64.3519 5.47074C64.137 5.95549 63.7977 6.37099 63.3566 6.71723C62.9155 7.05194 62.3614 7.3174 61.6941 7.50206C62.3048 7.55977 62.7798 7.74444 63.1304 8.03298C63.481 8.32152 63.7524 8.66777 63.956 9.09481C64.1596 9.51031 64.3518 9.96043 64.5215 10.4336C64.6911 10.9068 64.9173 11.357 65.1775 11.7956C65.3923 12.2111 65.6185 12.4881 65.8673 12.6381C66.1162 12.7881 66.3537 12.8805 66.5798 12.9035C66.806 12.9266 66.9191 13.0651 66.9191 13.3075C66.9191 13.3768 66.8965 13.4691 66.84 13.573C66.7834 13.6884 66.7042 13.7345 66.6025 13.7345H64.1257C63.8542 13.7345 63.6167 13.596 63.4245 13.3075C63.2322 13.019 63.0512 12.6612 62.8929 12.1995C62.7346 11.7494 62.5649 11.2762 62.3953 10.7683C62.2256 10.2605 62.0334 9.78731 61.8072 9.33718C61.5923 8.88706 61.3209 8.51773 61.0042 8.22919C60.6875 7.94065 60.303 7.80215 59.8393 7.80215H58.1881V11.9687C58.1881 12.2457 58.2786 12.4419 58.4482 12.5573C58.6179 12.6727 58.8328 12.765 59.0816 12.7997C59.3304 12.8343 59.5679 12.8689 59.7828 12.8805C59.9072 12.892 59.9976 12.9151 60.0429 12.9613C60.0881 13.0074 60.1107 13.0882 60.1107 13.2383C60.1107 13.3075 60.0881 13.3998 60.0316 13.5268C59.975 13.6538 59.8959 13.7115 59.7941 13.7115H54.9649V13.723ZM58.1994 6.98269H59.7601C60.2691 6.98269 60.7554 6.9019 61.1852 6.74032C61.6262 6.57873 61.9768 6.27865 62.2483 5.86315C62.5197 5.44765 62.6554 4.84749 62.6554 4.0742C62.6554 3.30091 62.5197 2.70075 62.2483 2.27371C61.9768 1.84666 61.6036 1.54658 61.1399 1.37346C60.6762 1.20033 60.1334 1.108 59.5453 1.108H58.2107V6.98269H58.1994Z" fill="#1B2F5A"/>
<path d="M80.5697 13.723C80.4679 13.723 80.3887 13.6653 80.3322 13.5383C80.2756 13.4114 80.253 13.319 80.253 13.2498C80.253 13.0305 80.3548 12.9151 80.5584 12.9035C80.8524 12.8805 81.1352 12.8228 81.4066 12.742C81.678 12.6612 81.8137 12.5111 81.8137 12.3034V2.03133C81.8137 1.76587 81.7572 1.56966 81.6102 1.44271C81.4744 1.32729 81.2935 1.2465 81.0899 1.20033C80.8863 1.15417 80.6941 1.13108 80.5018 1.108C80.3661 1.09646 80.2869 1.07337 80.2417 1.02721C80.1964 0.981042 80.1738 0.90025 80.1738 0.761751C80.1738 0.692501 80.1964 0.588626 80.253 0.47321C80.3095 0.346252 80.3887 0.288544 80.4905 0.288544H85.0596C85.1614 0.288544 85.2405 0.346252 85.2971 0.47321C85.3536 0.600168 85.3763 0.692501 85.3763 0.761751C85.3763 0.981042 85.2745 1.09646 85.0709 1.108C84.7768 1.13108 84.4715 1.18879 84.1774 1.26958C83.8721 1.35037 83.725 1.50041 83.725 1.70816V11.9571C83.725 12.2341 83.7929 12.4188 83.9512 12.5458C84.1096 12.6612 84.3018 12.742 84.5167 12.7881C84.7316 12.8228 84.9352 12.8574 85.1274 12.8805C85.2518 12.892 85.3423 12.9151 85.3876 12.9613C85.4328 13.0074 85.4554 13.0882 85.4554 13.2383C85.4554 13.3075 85.4328 13.3998 85.3763 13.5268C85.3197 13.6538 85.2405 13.7115 85.1388 13.7115H80.5697V13.723ZM83.3066 7.20198V6.17478H90.7596V7.20198H83.3066ZM88.9953 13.723C88.8935 13.723 88.8144 13.6653 88.7578 13.5383C88.7013 13.4114 88.6787 13.319 88.6787 13.2498C88.6787 13.0305 88.7805 12.9151 88.984 12.9035C89.2781 12.8805 89.5834 12.8228 89.8775 12.742C90.1828 12.6612 90.3299 12.5111 90.3299 12.3034V2.03133C90.3299 1.76587 90.262 1.56966 90.1037 1.44271C89.9453 1.32729 89.7644 1.2465 89.5382 1.20033C89.3233 1.15417 89.1197 1.13108 88.9275 1.108C88.8031 1.09646 88.7126 1.07337 88.6674 1.02721C88.6221 0.981042 88.5995 0.90025 88.5995 0.761751C88.5995 0.692501 88.6221 0.588626 88.6787 0.47321C88.7352 0.346252 88.8144 0.288544 88.9162 0.288544H93.5757C93.6775 0.288544 93.7567 0.346252 93.8132 0.47321C93.8698 0.600168 93.8924 0.692501 93.8924 0.761751C93.8924 0.981042 93.7906 1.09646 93.587 1.108C93.293 1.13108 92.9876 1.18879 92.6936 1.26958C92.3995 1.35037 92.2412 1.50041 92.2412 1.70816V11.9571C92.2412 12.2341 92.3091 12.4188 92.4674 12.5458C92.6257 12.6612 92.818 12.742 93.0329 12.7881C93.2478 12.8228 93.4513 12.8574 93.6436 12.8805C93.7793 12.892 93.8585 12.9151 93.9037 12.9613C93.9489 13.0074 93.9716 13.0882 93.9716 13.2383C93.9716 13.3075 93.9489 13.3998 93.8924 13.5268C93.8358 13.6538 93.7567 13.7115 93.6549 13.7115H88.9953V13.723Z" fill="#1B2F5A"/>
<path d="M99.9544 13.723C99.8526 13.723 99.7735 13.6653 99.7169 13.5383C99.6604 13.4114 99.6378 13.319 99.6378 13.2498C99.6378 13.0305 99.7396 12.9151 99.9431 12.9035C100.237 12.8805 100.543 12.8228 100.837 12.742C101.131 12.6612 101.289 12.5111 101.289 12.3034V2.03133C101.289 1.76587 101.221 1.56966 101.063 1.44271C100.904 1.32729 100.723 1.2465 100.497 1.20033C100.282 1.15417 100.079 1.13108 99.8866 1.108C99.7509 1.09646 99.6717 1.07337 99.6264 1.02721C99.5812 0.981042 99.5586 0.90025 99.5586 0.761751C99.5586 0.692501 99.5812 0.588626 99.6378 0.47321C99.6943 0.346252 99.7735 0.288544 99.8753 0.288544H104.557C104.659 0.288544 104.738 0.346252 104.795 0.47321C104.852 0.600168 104.874 0.692501 104.874 0.761751C104.874 0.981042 104.772 1.09646 104.569 1.108C104.275 1.13108 103.969 1.18879 103.675 1.26958C103.37 1.35037 103.223 1.50041 103.223 1.70816V11.9571C103.223 12.2341 103.291 12.4188 103.449 12.5458C103.607 12.6612 103.8 12.742 104.015 12.7881C104.229 12.8228 104.433 12.8574 104.625 12.8805C104.75 12.892 104.84 12.9151 104.885 12.9613C104.931 13.0074 104.953 13.0882 104.953 13.2383C104.953 13.3075 104.931 13.3998 104.874 13.5268C104.818 13.6538 104.738 13.7115 104.637 13.7115H99.9544V13.723Z" fill="#1B2F5A"/>
<path d="M113.515 14C113.096 14 112.666 13.9192 112.225 13.7576C111.784 13.596 111.354 13.3421 110.947 12.9959C110.653 12.7073 110.45 12.3957 110.337 12.0495C110.224 11.7148 110.167 11.3916 110.167 11.08C110.167 10.5144 110.303 10.0758 110.574 9.74113C110.846 9.41797 111.196 9.24484 111.626 9.24484C111.818 9.24484 111.977 9.27947 112.112 9.34872C112.248 9.41797 112.316 9.48722 112.316 9.55647L111.909 12.6381C112.09 12.7881 112.316 12.9035 112.576 13.0074C112.836 13.1113 113.119 13.1575 113.435 13.1575C114.08 13.1575 114.6 12.9035 114.985 12.3842C115.369 11.8648 115.562 11.0338 115.562 9.86809V2.03132C115.562 1.76587 115.516 1.55812 115.403 1.4427C115.29 1.31574 115.143 1.23495 114.962 1.20033C114.781 1.1657 114.578 1.13108 114.34 1.11954C114.216 1.10799 114.125 1.08491 114.08 1.03874C114.035 0.992577 114.012 0.911786 114.012 0.773286C114.012 0.704037 114.035 0.600162 114.091 0.484745C114.148 0.357788 114.227 0.300079 114.329 0.300079H118.638C118.74 0.300079 118.819 0.357788 118.875 0.484745C118.932 0.611703 118.955 0.704037 118.955 0.773286C118.955 0.992577 118.853 1.10799 118.649 1.11954C118.378 1.14262 118.118 1.20033 117.858 1.28112C117.609 1.36191 117.473 1.51195 117.473 1.7197V9.55647C117.473 10.4798 117.337 11.2415 117.066 11.8186C116.794 12.3957 116.444 12.8458 116.025 13.169C115.607 13.4806 115.166 13.6999 114.725 13.8269C114.272 13.9423 113.877 14.0115 113.526 14.0115L113.515 14Z" fill="#1B2F5A"/>
<path d="M124.598 13.723C124.496 13.723 124.417 13.6653 124.361 13.5383C124.304 13.4114 124.281 13.319 124.281 13.2498C124.281 13.042 124.383 12.9266 124.587 12.9035C124.881 12.8805 125.186 12.8228 125.48 12.742C125.786 12.6612 125.933 12.5111 125.933 12.3034V2.03133C125.933 1.76587 125.876 1.56967 125.729 1.44271C125.582 1.32729 125.412 1.2465 125.209 1.20033C125.005 1.15417 124.813 1.13108 124.621 1.108C124.496 1.09646 124.406 1.07338 124.361 1.02721C124.315 0.981043 124.293 0.900251 124.293 0.761751C124.293 0.692502 124.315 0.588627 124.372 0.473211C124.429 0.346253 124.508 0.288545 124.609 0.288545C124.983 0.288545 125.299 0.288545 125.571 0.288545C125.831 0.288545 126.091 0.288545 126.34 0.288545C126.86 0.288545 127.267 0.288545 127.573 0.265461C127.878 0.242378 128.172 0.242378 128.466 0.219295C128.76 0.207753 129.145 0.196211 129.62 0.207753C130.49 0.207753 131.282 0.334711 131.995 0.565544C132.707 0.796376 133.273 1.16571 133.691 1.68508C134.11 2.20446 134.313 2.9085 134.313 3.78566C134.313 4.42045 134.2 4.98599 133.985 5.47074C133.77 5.95549 133.431 6.37099 132.99 6.71723C132.549 7.05194 131.995 7.3174 131.327 7.50206C131.938 7.55977 132.413 7.74444 132.764 8.03298C133.114 8.32152 133.386 8.66777 133.589 9.09481C133.793 9.51031 133.985 9.96043 134.155 10.4336C134.324 10.9068 134.551 11.357 134.811 11.7956C135.026 12.2111 135.252 12.4881 135.501 12.6381C135.749 12.7881 135.987 12.8805 136.213 12.9035C136.439 12.9266 136.552 13.0651 136.552 13.3075C136.552 13.3768 136.53 13.4691 136.473 13.573C136.417 13.6884 136.338 13.7345 136.236 13.7345H133.759C133.488 13.7345 133.25 13.596 133.058 13.3075C132.865 13.019 132.685 12.6612 132.526 12.1995C132.368 11.7494 132.198 11.2762 132.029 10.7683C131.859 10.2605 131.667 9.78731 131.44 9.33718C131.226 8.88706 130.954 8.51773 130.638 8.22919C130.321 7.94065 129.936 7.80215 129.473 7.80215H127.821V11.9687C127.821 12.2457 127.912 12.4419 128.082 12.5573C128.251 12.6727 128.466 12.765 128.715 12.7997C128.964 12.8343 129.201 12.8689 129.416 12.8805C129.54 12.892 129.631 12.9151 129.676 12.9613C129.721 13.0074 129.744 13.0882 129.744 13.2383C129.744 13.3075 129.721 13.3998 129.665 13.5268C129.608 13.6538 129.529 13.7115 129.427 13.7115H124.598V13.723ZM127.833 6.98269H129.393C129.902 6.98269 130.389 6.9019 130.818 6.74032C131.26 6.57873 131.61 6.27865 131.882 5.86315C132.153 5.44765 132.289 4.84749 132.289 4.0742C132.289 3.30091 132.153 2.70075 131.882 2.27371C131.61 1.84666 131.237 1.54658 130.773 1.37346C130.31 1.20033 129.767 1.108 129.179 1.108H127.844V6.98269H127.833Z" fill="#1B2F5A"/>
<path d="M141.924 13.723C141.823 13.723 141.743 13.6653 141.687 13.5383C141.63 13.4114 141.608 13.319 141.608 13.2498C141.608 13.0305 141.71 12.9151 141.913 12.9035C142.207 12.8805 142.512 12.8228 142.807 12.742C143.101 12.6612 143.259 12.5111 143.259 12.3034V2.03133C143.259 1.76587 143.191 1.56966 143.033 1.44271C142.874 1.32729 142.693 1.2465 142.467 1.20033C142.252 1.15417 142.049 1.13108 141.857 1.108C141.721 1.09646 141.642 1.07337 141.596 1.02721C141.551 0.981042 141.529 0.90025 141.529 0.761751C141.529 0.692501 141.551 0.588626 141.608 0.47321C141.664 0.346252 141.743 0.288544 141.845 0.288544H146.527C146.629 0.288544 146.708 0.346252 146.765 0.47321C146.821 0.600168 146.844 0.692501 146.844 0.761751C146.844 0.981042 146.742 1.09646 146.539 1.108C146.245 1.13108 145.939 1.18879 145.645 1.26958C145.34 1.35037 145.193 1.50041 145.193 1.70816V11.9571C145.193 12.2341 145.261 12.4188 145.419 12.5458C145.577 12.6612 145.77 12.742 145.985 12.7881C146.199 12.8228 146.403 12.8574 146.595 12.8805C146.72 12.892 146.81 12.9151 146.855 12.9613C146.901 13.0074 146.923 13.0882 146.923 13.2383C146.923 13.3075 146.901 13.3998 146.844 13.5268C146.788 13.6538 146.708 13.7115 146.607 13.7115H141.924V13.723Z" fill="#1B2F5A"/>
<path d="M155.077 13.723C154.976 13.723 154.897 13.6653 154.84 13.5383C154.783 13.4114 154.761 13.319 154.761 13.2498C154.761 13.042 154.897 12.9266 155.157 12.9035C155.372 12.8805 155.586 12.8689 155.824 12.8689C156.061 12.8689 156.265 12.8227 156.435 12.742C156.604 12.6612 156.695 12.5227 156.695 12.2918V8.6793L153.064 1.85819C152.849 1.46578 152.623 1.23495 152.374 1.17724C152.126 1.10799 151.888 1.06182 151.662 1.03874C151.526 1.0272 151.447 1.00411 151.402 0.957946C151.357 0.91178 151.334 0.830988 151.334 0.692489C151.334 0.623239 151.368 0.542448 151.413 0.450115C151.458 0.357781 151.549 0.311615 151.651 0.311615H156.491C156.593 0.311615 156.672 0.357781 156.729 0.450115C156.785 0.542448 156.808 0.623239 156.808 0.692489C156.808 0.900238 156.706 1.01565 156.502 1.03874C156.141 1.06182 155.813 1.0849 155.519 1.13107C155.236 1.17724 155.089 1.26957 155.089 1.40807C155.089 1.43115 155.089 1.4427 155.089 1.46578C155.089 1.48886 155.1 1.51194 155.111 1.54657L158.278 8.05605H157.758L161.015 1.54657C161.015 1.54657 161.049 1.4427 161.049 1.39653C161.026 1.25803 160.879 1.1657 160.608 1.13107C160.325 1.0849 160.008 1.06182 159.647 1.03874C159.443 1.01565 159.341 0.900238 159.341 0.692489C159.341 0.623239 159.364 0.542448 159.42 0.450115C159.477 0.357781 159.556 0.311615 159.658 0.311615H163.503C163.605 0.311615 163.684 0.357781 163.741 0.450115C163.797 0.542448 163.82 0.623239 163.82 0.692489C163.82 0.830988 163.797 0.923321 163.752 0.957946C163.707 1.00411 163.616 1.0272 163.492 1.03874C163.266 1.06182 163.028 1.10799 162.779 1.17724C162.531 1.24649 162.304 1.47732 162.089 1.85819L158.606 8.36767V12.1764C158.606 12.4534 158.697 12.6265 158.877 12.7189C159.058 12.8112 159.273 12.8574 159.522 12.8574C159.771 12.8574 159.997 12.8805 160.201 12.9035C160.336 12.9151 160.438 12.9382 160.517 12.9843C160.597 13.0305 160.63 13.1113 160.63 13.2613C160.63 13.3306 160.608 13.4229 160.551 13.5499C160.495 13.6768 160.416 13.7345 160.314 13.7345H155.077V13.723Z" fill="#1B2F5A"/>
<path d="M167.292 13.723C167.19 13.723 167.111 13.6768 167.055 13.5729C166.998 13.4806 166.975 13.3652 166.975 13.2382C166.975 13.0882 166.998 12.9959 167.043 12.9612C167.088 12.9266 167.179 12.9035 167.303 12.8805C167.462 12.8574 167.631 12.8458 167.812 12.8458C167.993 12.8458 168.163 12.7997 168.332 12.7073C168.491 12.615 168.627 12.4303 168.728 12.1533L172.969 0.08078H174.451L178.579 12.1649C178.681 12.4419 178.805 12.6265 178.964 12.7189C179.122 12.8112 179.292 12.8574 179.484 12.8574C179.665 12.8574 179.834 12.8689 179.981 12.892C180.117 12.9035 180.196 12.9266 180.242 12.9728C180.287 13.019 180.309 13.0997 180.309 13.2498C180.309 13.319 180.287 13.4114 180.23 13.5383C180.174 13.6653 180.094 13.723 179.993 13.723H175.344C175.243 13.723 175.164 13.6653 175.107 13.5383C175.05 13.4114 175.028 13.319 175.028 13.2498C175.028 13.042 175.13 12.9266 175.333 12.9035C175.706 12.8805 176.012 12.8689 176.249 12.8574C176.487 12.8458 176.6 12.765 176.6 12.615C176.6 12.5688 176.6 12.5227 176.577 12.4765L175.322 8.64467L175.876 9.04863H170.583L171.126 8.64467L169.859 12.4765C169.859 12.4765 169.837 12.5457 169.837 12.5919C169.837 12.7535 169.972 12.8343 170.233 12.8458C170.493 12.8458 170.821 12.8689 171.194 12.892C171.397 12.9151 171.499 13.0305 171.499 13.2382C171.499 13.3075 171.477 13.3998 171.42 13.5268C171.363 13.6537 171.284 13.7114 171.183 13.7114H167.258L167.292 13.723ZM171.16 8.63313L170.877 8.22917H175.627L175.344 8.63313L173.343 2.48144L171.16 8.63313Z" fill="#1B2F5A"/>
<path d="M186.79 13.723C186.688 13.723 186.609 13.6653 186.552 13.5383C186.496 13.4114 186.473 13.3191 186.473 13.2498C186.473 13.0421 186.575 12.9266 186.778 12.9036C187.072 12.8805 187.367 12.8574 187.661 12.7997C187.955 12.742 188.203 12.6612 188.396 12.5458C188.588 12.4188 188.69 12.2457 188.69 12.0148V1.22342H186.337C186.066 1.22342 185.851 1.35038 185.681 1.6043C185.512 1.85821 185.376 2.15829 185.274 2.51608C185.172 2.87388 185.093 3.22012 185.048 3.54329C185.003 3.86646 184.969 4.10883 184.958 4.25887C184.946 4.37429 184.912 4.46662 184.856 4.50125C184.799 4.54741 184.72 4.5705 184.618 4.5705C184.55 4.5705 184.449 4.54741 184.324 4.4897C184.2 4.432 184.132 4.3512 184.143 4.24733C184.155 3.93571 184.177 3.56637 184.189 3.11625C184.211 2.66613 184.234 2.22754 184.268 1.8005C184.302 1.36192 184.324 1.00413 184.358 0.71559C184.392 0.427049 184.426 0.277008 184.46 0.277008H194.831C194.831 0.277008 194.899 0.427049 194.933 0.71559C194.967 1.00413 194.989 1.36192 195.023 1.8005C195.057 2.22754 195.08 2.66613 195.102 3.11625C195.125 3.56637 195.136 3.93571 195.148 4.24733C195.148 4.3512 195.091 4.432 194.967 4.4897C194.842 4.54741 194.752 4.5705 194.684 4.5705C194.582 4.5705 194.503 4.54741 194.446 4.50125C194.39 4.45508 194.356 4.37429 194.345 4.25887C194.333 4.10883 194.299 3.86646 194.254 3.54329C194.209 3.22012 194.13 2.87388 194.039 2.51608C193.937 2.15829 193.802 1.85821 193.632 1.6043C193.462 1.35038 193.236 1.22342 192.976 1.22342H190.624V11.9687C190.624 12.2457 190.714 12.4419 190.929 12.5573C191.133 12.6843 191.393 12.7651 191.687 12.7997C191.981 12.8343 192.252 12.8689 192.501 12.8805C192.626 12.892 192.716 12.9151 192.761 12.9613C192.806 13.0074 192.829 13.0882 192.829 13.2383C192.829 13.3075 192.806 13.3998 192.75 13.5268C192.693 13.6538 192.614 13.7115 192.512 13.7115H186.812L186.79 13.723Z" fill="#1B2F5A"/>
<path d="M200.723 13.723C200.621 13.723 200.542 13.6653 200.486 13.5383C200.429 13.4114 200.407 13.319 200.407 13.2498C200.407 13.0305 200.508 12.9151 200.712 12.9035C201.006 12.8805 201.311 12.8228 201.605 12.742C201.899 12.6612 202.058 12.5111 202.058 12.3034V2.03133C202.058 1.76587 201.99 1.56966 201.832 1.44271C201.673 1.32729 201.492 1.2465 201.266 1.20033C201.051 1.15417 200.848 1.13108 200.655 1.108C200.52 1.09646 200.44 1.07337 200.395 1.02721C200.35 0.981042 200.327 0.90025 200.327 0.761751C200.327 0.692501 200.35 0.588626 200.407 0.47321C200.463 0.346252 200.542 0.288544 200.644 0.288544H205.326C205.428 0.288544 205.507 0.346252 205.564 0.47321C205.62 0.600168 205.643 0.692501 205.643 0.761751C205.643 0.981042 205.541 1.09646 205.338 1.108C205.043 1.13108 204.738 1.18879 204.444 1.26958C204.139 1.35037 203.992 1.50041 203.992 1.70816V11.9571C203.992 12.2341 204.06 12.4188 204.218 12.5458C204.376 12.6612 204.569 12.742 204.783 12.7881C204.998 12.8228 205.202 12.8574 205.394 12.8805C205.519 12.892 205.609 12.9151 205.654 12.9613C205.699 13.0074 205.722 13.0882 205.722 13.2383C205.722 13.3075 205.699 13.3998 205.643 13.5268C205.586 13.6538 205.507 13.7115 205.405 13.7115H200.723V13.723Z" fill="#1B2F5A"/>
<path d="M224.722 14C224.01 14 223.467 13.9077 223.082 13.723C222.698 13.5383 222.404 13.3998 222.2 13.2844C222.031 13.1921 221.883 13.1113 221.77 13.042C221.657 12.9728 221.556 12.9382 221.442 12.9382C221.397 12.9382 221.352 12.9382 221.307 12.9728C221.261 12.9959 221.205 13.042 221.16 13.0997C221.047 13.2382 220.933 13.3421 220.82 13.3998C220.707 13.4575 220.594 13.4922 220.504 13.4922C220.391 13.4922 220.289 13.446 220.221 13.3652C220.153 13.2844 220.119 13.169 220.119 13.042C220.131 12.9151 220.142 12.7881 220.142 12.6496V12.2572C220.142 11.634 220.108 11.0569 220.04 10.526C219.972 9.99505 219.938 9.57955 219.938 9.27947C219.938 9.11788 219.983 8.99092 220.085 8.91013C220.187 8.82934 220.289 8.79472 220.402 8.79472C220.662 8.79472 220.832 8.93322 220.888 9.18713C220.922 9.34872 220.99 9.56801 221.08 9.86809C221.171 10.1566 221.341 10.5837 221.589 11.1261C221.816 11.6109 222.098 11.9917 222.438 12.2918C222.777 12.5919 223.139 12.8112 223.523 12.9497C223.897 13.0882 224.259 13.1575 224.586 13.1575C224.96 13.1575 225.333 13.0997 225.684 12.9728C226.034 12.8574 226.328 12.6265 226.566 12.3034C226.803 11.9802 226.916 11.507 226.916 10.8838C226.916 10.4221 226.781 9.99505 226.498 9.62572C226.215 9.25638 225.853 8.92168 225.401 8.62159C224.948 8.32151 224.485 8.04451 223.987 7.7906C223.557 7.5713 223.139 7.32893 222.72 7.07501C222.302 6.8211 221.917 6.53256 221.578 6.20939C221.239 5.88623 220.956 5.50535 220.753 5.07831C220.538 4.65127 220.425 4.15498 220.413 3.60098C220.391 2.95465 220.504 2.40065 220.741 1.93899C220.979 1.47732 221.284 1.10799 221.669 0.830992C222.053 0.553992 222.472 0.334701 222.935 0.207743C223.388 0.0692438 223.829 0.0115356 224.258 0.0115356C224.756 0.0115356 225.163 0.0461605 225.491 0.126952C225.819 0.207743 226.091 0.288535 226.294 0.369326C226.498 0.450118 226.634 0.496284 226.713 0.496284C226.86 0.496284 226.962 0.473201 227.018 0.415493C227.075 0.357785 227.154 0.300076 227.233 0.242368C227.301 0.196202 227.38 0.173119 227.482 0.173119C227.606 0.173119 227.719 0.207743 227.832 0.276993C227.945 0.346243 227.991 0.427034 227.991 0.530909C227.991 0.911783 228.013 1.29266 228.047 1.63891C228.092 1.9967 228.126 2.3314 228.172 2.64303C228.217 2.95465 228.228 3.23165 228.228 3.46248C228.228 3.65869 228.183 3.79719 228.081 3.87798C227.979 3.95877 227.866 3.9934 227.753 3.9934C227.663 3.9934 227.572 3.97032 227.493 3.92415C227.414 3.87798 227.357 3.83182 227.346 3.77411C227.278 3.35861 227.176 3.00082 227.041 2.67765C226.905 2.35449 226.747 2.07749 226.554 1.83511C226.362 1.59274 226.159 1.39653 225.932 1.23495C225.706 1.07337 225.457 0.95795 225.209 0.877158C224.948 0.796367 224.688 0.761742 224.417 0.761742C223.987 0.761742 223.614 0.830992 223.275 0.981033C222.947 1.13107 222.675 1.36191 222.494 1.69661C222.302 2.03132 222.211 2.48145 222.211 3.04699C222.211 3.45094 222.358 3.82027 222.641 4.16652C222.924 4.51277 223.297 4.83594 223.75 5.13602C224.202 5.4361 224.654 5.73619 225.141 6.01318C225.548 6.25556 225.955 6.50947 226.385 6.77493C226.814 7.04039 227.21 7.34047 227.584 7.67518C227.957 8.00989 228.251 8.37922 228.488 8.79472C228.726 9.21022 228.839 9.68342 228.839 10.2143C228.839 11.0338 228.658 11.7263 228.296 12.2918C227.934 12.8574 227.437 13.2844 226.826 13.573C226.215 13.8615 225.525 14.0115 224.767 14.0115L224.722 14Z" fill="#1B2F5A"/>
<path d="M234.663 13.723C234.562 13.723 234.482 13.6653 234.426 13.5383C234.369 13.4114 234.347 13.319 234.347 13.2498C234.347 13.0305 234.449 12.9151 234.652 12.9035C234.946 12.8805 235.229 12.8228 235.5 12.742C235.772 12.6612 235.907 12.5111 235.907 12.3034V2.03133C235.907 1.76587 235.851 1.56966 235.704 1.44271C235.568 1.32729 235.387 1.2465 235.184 1.20033C234.98 1.15417 234.788 1.13108 234.596 1.108C234.46 1.09646 234.381 1.07337 234.335 1.02721C234.29 0.981042 234.268 0.90025 234.268 0.761751C234.268 0.692501 234.29 0.588626 234.347 0.47321C234.403 0.346252 234.482 0.288544 234.584 0.288544H239.153C239.255 0.288544 239.334 0.346252 239.391 0.47321C239.447 0.600168 239.47 0.692501 239.47 0.761751C239.47 0.981042 239.368 1.09646 239.165 1.108C238.871 1.13108 238.565 1.18879 238.271 1.26958C237.966 1.35037 237.819 1.50041 237.819 1.70816V11.9571C237.819 12.2341 237.887 12.4188 238.045 12.5458C238.203 12.6612 238.396 12.742 238.61 12.7881C238.825 12.8228 239.029 12.8574 239.221 12.8805C239.346 12.892 239.436 12.9151 239.481 12.9613C239.527 13.0074 239.549 13.0882 239.549 13.2383C239.549 13.3075 239.527 13.3998 239.47 13.5268C239.413 13.6538 239.334 13.7115 239.233 13.7115H234.663V13.723ZM237.4 7.20198V6.17478H244.853V7.20198H237.4ZM243.089 13.723C242.987 13.723 242.908 13.6653 242.852 13.5383C242.795 13.4114 242.772 13.319 242.772 13.2498C242.772 13.0305 242.874 12.9151 243.078 12.9035C243.372 12.8805 243.677 12.8228 243.971 12.742C244.277 12.6612 244.424 12.5111 244.424 12.3034V2.03133C244.424 1.76587 244.356 1.56966 244.197 1.44271C244.039 1.32729 243.858 1.2465 243.632 1.20033C243.417 1.15417 243.213 1.13108 243.021 1.108C242.897 1.09646 242.806 1.07337 242.761 1.02721C242.716 0.981042 242.693 0.90025 242.693 0.761751C242.693 0.692501 242.716 0.588626 242.772 0.47321C242.829 0.346252 242.908 0.288544 243.01 0.288544H247.669C247.771 0.288544 247.85 0.346252 247.907 0.47321C247.964 0.600168 247.986 0.692501 247.986 0.761751C247.986 0.981042 247.884 1.09646 247.681 1.108C247.387 1.13108 247.081 1.18879 246.787 1.26958C246.493 1.35037 246.335 1.50041 246.335 1.70816V11.9571C246.335 12.2341 246.403 12.4188 246.561 12.5458C246.719 12.6612 246.912 12.742 247.127 12.7881C247.341 12.8228 247.545 12.8574 247.737 12.8805C247.873 12.892 247.952 12.9151 247.997 12.9613C248.043 13.0074 248.065 13.0882 248.065 13.2383C248.065 13.3075 248.043 13.3998 247.986 13.5268C247.93 13.6538 247.85 13.7115 247.749 13.7115H243.089V13.723Z" fill="#1B2F5A"/>
<path d="M259.692 13.9885C258.719 13.9885 257.848 13.8038 257.079 13.4345C256.31 13.0651 255.665 12.5573 255.145 11.911C254.614 11.2646 254.218 10.5144 253.935 9.66035C253.664 8.80627 253.528 7.89448 253.528 6.92499C253.528 5.63232 253.777 4.45508 254.274 3.41633C254.772 2.36604 255.496 1.53504 256.423 0.911795C257.362 0.288547 258.481 -0.0115356 259.782 -0.0115356C261.083 -0.0115356 262.191 0.300088 263.107 0.911795C264.023 1.53504 264.713 2.36604 265.199 3.41633C265.674 4.46662 265.923 5.63232 265.923 6.92499C265.923 7.89448 265.787 8.80627 265.505 9.66035C265.222 10.5144 264.815 11.2646 264.283 11.911C263.752 12.5573 263.096 13.0651 262.327 13.4345C261.558 13.8038 260.687 13.9885 259.703 13.9885H259.692ZM259.737 13.0998C260.766 13.0998 261.558 12.8574 262.112 12.3611C262.666 11.8648 263.051 11.1608 263.277 10.2374C263.503 9.3141 263.605 8.22919 263.605 6.95961C263.605 5.69003 263.492 4.60512 263.265 3.69333C263.039 2.78154 262.643 2.08904 262.078 1.60429C261.512 1.11954 260.709 0.87717 259.692 0.87717C258.674 0.87717 257.871 1.11954 257.317 1.60429C256.751 2.08904 256.367 2.78154 256.152 3.69333C255.937 4.60512 255.835 5.69003 255.835 6.95961C255.835 8.22919 255.948 9.32565 256.174 10.2374C256.4 11.1608 256.796 11.8648 257.362 12.3611C257.927 12.8574 258.719 13.0998 259.737 13.0998Z" fill="#1B2F5A"/>
<path d="M271.883 13.723C271.782 13.723 271.702 13.6653 271.646 13.5383C271.589 13.4114 271.567 13.319 271.567 13.2498C271.567 13.042 271.668 12.9266 271.872 12.9035C272.121 12.8805 272.37 12.8574 272.618 12.8112C272.867 12.765 273.071 12.7073 273.24 12.6265C273.41 12.5458 273.501 12.4303 273.501 12.2918V2.03132C273.501 1.76587 273.41 1.55812 273.229 1.4427C273.037 1.31574 272.822 1.23495 272.562 1.20033C272.302 1.15416 272.053 1.13108 271.827 1.11954C271.691 1.10799 271.612 1.08491 271.567 1.03874C271.521 0.992577 271.499 0.911786 271.499 0.773286C271.499 0.704037 271.521 0.600162 271.578 0.484745C271.635 0.357788 271.714 0.300079 271.815 0.300079H281.316L281.655 3.60099C281.655 3.70486 281.61 3.78565 281.519 3.84336C281.429 3.90107 281.349 3.92415 281.282 3.92415C281.18 3.92415 281.089 3.90107 281.021 3.8549C280.954 3.80874 280.897 3.72794 280.886 3.61253C280.874 3.5202 280.818 3.34707 280.705 3.09315C280.592 2.83924 280.456 2.57378 280.275 2.28524C280.094 1.9967 279.902 1.75433 279.676 1.54658C279.449 1.33883 279.212 1.23495 278.952 1.23495H275.435V6.71723H277.889C278.047 6.69414 278.194 6.56719 278.318 6.34789C278.443 6.1286 278.545 5.88623 278.635 5.63231C278.714 5.3784 278.76 5.18219 278.771 5.05523C278.782 4.92827 278.839 4.84748 278.952 4.80132C279.065 4.75515 279.155 4.74361 279.257 4.74361C279.325 4.74361 279.404 4.76669 279.495 4.8244C279.585 4.88211 279.63 4.9629 279.63 5.06677V9.25639C279.63 9.36026 279.585 9.44105 279.495 9.49876C279.404 9.55647 279.325 9.57955 279.257 9.57955C279.155 9.57955 279.054 9.55647 278.952 9.5103C278.85 9.46414 278.793 9.38334 278.771 9.26793C278.76 9.12943 278.714 8.92168 278.624 8.64468C278.545 8.36768 278.432 8.11376 278.296 7.88293C278.16 7.6521 278.002 7.53668 277.832 7.53668H275.435V11.8763C275.435 12.0725 275.502 12.2457 275.638 12.3842C275.774 12.5227 275.955 12.6265 276.17 12.6958C276.385 12.765 276.611 12.8228 276.848 12.8574C277.086 12.892 277.301 12.9035 277.493 12.9035C277.595 12.9035 277.685 12.9266 277.742 12.9728C277.798 13.019 277.832 13.1113 277.832 13.2613C277.832 13.3306 277.81 13.4229 277.753 13.5499C277.696 13.6768 277.617 13.7345 277.516 13.7345H271.906L271.883 13.723Z" fill="#1B2F5A"/>
<path d="M287.174 13.723C287.072 13.723 286.993 13.6653 286.936 13.5383C286.88 13.4114 286.857 13.319 286.857 13.2498C286.857 13.0305 286.959 12.9151 287.163 12.9035C287.457 12.8805 287.762 12.8228 288.056 12.742C288.35 12.6612 288.508 12.5111 288.508 12.3034V2.03133C288.508 1.76587 288.441 1.56966 288.282 1.44271C288.124 1.32729 287.943 1.2465 287.717 1.20033C287.502 1.15417 287.298 1.13108 287.106 1.108C286.97 1.09646 286.891 1.07337 286.846 1.02721C286.801 0.981042 286.778 0.90025 286.778 0.761751C286.778 0.692501 286.801 0.588626 286.857 0.47321C286.914 0.346252 286.993 0.288544 287.095 0.288544H291.777C291.879 0.288544 291.958 0.346252 292.014 0.47321C292.071 0.600168 292.094 0.692501 292.094 0.761751C292.094 0.981042 291.992 1.09646 291.788 1.108C291.494 1.13108 291.189 1.18879 290.895 1.26958C290.589 1.35037 290.442 1.50041 290.442 1.70816V11.9571C290.442 12.2341 290.51 12.4188 290.669 12.5458C290.827 12.6612 291.019 12.742 291.234 12.7881C291.449 12.8228 291.653 12.8574 291.845 12.8805C291.969 12.892 292.06 12.9151 292.105 12.9613C292.15 13.0074 292.173 13.0882 292.173 13.2383C292.173 13.3075 292.15 13.3998 292.094 13.5268C292.037 13.6538 291.958 13.7115 291.856 13.7115H287.174V13.723Z" fill="#1B2F5A"/>
<path d="M297.047 13.723C296.945 13.723 296.866 13.6768 296.81 13.573C296.753 13.4806 296.73 13.3652 296.73 13.2382C296.73 13.0882 296.753 12.9959 296.798 12.9612C296.844 12.9266 296.934 12.9035 297.058 12.8805C297.217 12.8574 297.386 12.8458 297.567 12.8458C297.748 12.8458 297.918 12.7997 298.088 12.7073C298.246 12.615 298.382 12.4303 298.483 12.1533L302.736 0.0692444H304.217L308.345 12.1533C308.447 12.4303 308.572 12.615 308.73 12.7073C308.888 12.7997 309.058 12.8458 309.25 12.8458C309.431 12.8458 309.601 12.8574 309.748 12.8805C309.884 12.892 309.963 12.9151 310.008 12.9612C310.053 13.0074 310.076 13.0882 310.076 13.2382C310.076 13.3075 310.053 13.3998 309.997 13.5268C309.94 13.6537 309.861 13.7115 309.759 13.7115H305.111C305.009 13.7115 304.93 13.6537 304.873 13.5268C304.817 13.3998 304.794 13.3075 304.794 13.2382C304.794 13.0305 304.896 12.9151 305.1 12.892C305.473 12.8689 305.778 12.8574 306.016 12.8458C306.253 12.8343 306.366 12.7535 306.366 12.6035C306.366 12.5573 306.366 12.5111 306.344 12.465L305.088 8.63314L305.642 9.03709H300.35L300.892 8.63314L299.626 12.465C299.626 12.465 299.603 12.5342 299.603 12.5804C299.603 12.742 299.739 12.8227 299.999 12.8343C300.259 12.8343 300.587 12.8574 300.96 12.8805C301.164 12.9035 301.266 13.019 301.266 13.2267C301.266 13.296 301.243 13.3883 301.186 13.5152C301.13 13.6422 301.051 13.6999 300.949 13.6999H297.025L297.047 13.723ZM300.915 8.63314L300.632 8.22918H305.382L305.1 8.63314L303.098 2.48145L300.915 8.63314Z" fill="#1B2F5A"/>
<path d="M314.419 13.723C314.317 13.723 314.238 13.6653 314.181 13.5383C314.125 13.4114 314.102 13.319 314.102 13.2498C314.102 13.042 314.204 12.9266 314.407 12.9035C314.6 12.8805 314.815 12.8574 315.041 12.8112C315.267 12.765 315.459 12.6843 315.606 12.5804C315.753 12.4765 315.844 12.3149 315.844 12.1072V2.03133C315.844 1.76587 315.753 1.56966 315.584 1.44271C315.414 1.32729 315.21 1.2465 314.984 1.20033C314.747 1.15417 314.543 1.13108 314.351 1.108C314.215 1.09646 314.136 1.07337 314.091 1.02721C314.046 0.981042 314.023 0.90025 314.023 0.761751C314.023 0.692501 314.046 0.588626 314.102 0.47321C314.159 0.346252 314.238 0.288544 314.34 0.288544H317.472L324.677 10.7568H324.79V2.03133C324.79 1.76587 324.688 1.56966 324.484 1.44271C324.281 1.32729 324.055 1.2465 323.794 1.20033C323.534 1.15417 323.308 1.13108 323.116 1.108C322.98 1.09646 322.901 1.07337 322.856 1.02721C322.811 0.981042 322.788 0.90025 322.788 0.761751C322.788 0.692501 322.811 0.588626 322.867 0.47321C322.924 0.346252 323.003 0.288544 323.105 0.288544H327.323C327.425 0.288544 327.504 0.346252 327.561 0.47321C327.617 0.600168 327.64 0.692501 327.64 0.761751C327.64 0.9695 327.538 1.08492 327.334 1.108C327.153 1.13108 326.927 1.15417 326.667 1.20033C326.407 1.2465 326.181 1.32729 326 1.44271C325.808 1.55812 325.717 1.75433 325.717 2.03133V12.6496C325.717 12.765 325.717 12.8689 325.74 12.9497C325.762 13.0305 325.762 13.1575 325.774 13.3421C325.796 13.6076 325.74 13.7807 325.604 13.873C325.48 13.9654 325.344 14.0115 325.219 14.0115C324.993 14.0115 324.835 13.9423 324.722 13.8038L316.941 2.80462H316.782V11.9802C316.782 12.2572 316.873 12.4419 317.065 12.5688C317.246 12.6843 317.472 12.765 317.71 12.8112C317.959 12.8458 318.174 12.8805 318.355 12.9035C318.479 12.9151 318.569 12.9382 318.615 12.9843C318.66 13.0305 318.683 13.1113 318.683 13.2613C318.683 13.3306 318.66 13.4229 318.603 13.5499C318.547 13.6768 318.468 13.7345 318.366 13.7345H314.419V13.723Z" fill="#1B2F5A"/>
<path d="M331.971 13.723C331.87 13.723 331.791 13.6768 331.734 13.573C331.677 13.4806 331.655 13.3652 331.655 13.2382C331.655 13.0882 331.677 12.9959 331.723 12.9612C331.768 12.9266 331.858 12.9035 331.983 12.8805C332.141 12.8574 332.311 12.8458 332.492 12.8458C332.673 12.8458 332.842 12.7997 333.012 12.7073C333.17 12.615 333.306 12.4303 333.408 12.1533L337.66 0.0692444H339.142L343.27 12.1533C343.372 12.4303 343.496 12.615 343.654 12.7073C343.813 12.7997 343.982 12.8458 344.175 12.8458C344.355 12.8458 344.525 12.8574 344.672 12.8805C344.808 12.892 344.887 12.9151 344.932 12.9612C344.978 13.0074 345 13.0882 345 13.2382C345 13.3075 344.978 13.3998 344.921 13.5268C344.864 13.6537 344.785 13.7115 344.683 13.7115H340.035C339.933 13.7115 339.854 13.6537 339.798 13.5268C339.741 13.3998 339.719 13.3075 339.719 13.2382C339.719 13.0305 339.82 12.9151 340.024 12.892C340.397 12.8689 340.702 12.8574 340.94 12.8458C341.177 12.8343 341.291 12.7535 341.291 12.6035C341.291 12.5573 341.291 12.5111 341.268 12.465L340.013 8.63314L340.567 9.03709H335.274L335.817 8.63314L334.55 12.465C334.55 12.465 334.527 12.5342 334.527 12.5804C334.527 12.742 334.663 12.8227 334.923 12.8343C335.183 12.8343 335.511 12.8574 335.885 12.8805C336.088 12.9035 336.19 13.019 336.19 13.2267C336.19 13.296 336.167 13.3883 336.111 13.5152C336.054 13.6422 335.975 13.6999 335.873 13.6999H331.949L331.971 13.723ZM335.839 8.63314L335.557 8.22918H340.307L340.024 8.63314L338.022 2.48145L335.839 8.63314Z" fill="#1B2F5A"/>
</g>
<path d="M221.319 39.0331C220.264 39.0901 219.737 38.4913 219.737 37.2367C219.737 36.5524 219.936 35.7398 220.336 34.7988C220.735 33.8294 221.334 32.8171 222.132 31.7621C222.759 30.9637 223.558 30.0941 224.527 29.1531C225.497 28.2122 226.552 27.3568 227.692 26.5869C228.833 25.7885 229.973 25.2183 231.114 24.8761C231.427 24.7906 231.755 24.7335 232.097 24.705C232.44 24.648 232.853 24.6195 233.338 24.6195C233.794 24.6195 234.022 24.6765 234.022 24.7906C234.022 24.9331 233.823 25.0472 233.423 25.1327C233.081 25.2183 232.668 25.3608 232.183 25.5604C231.698 25.76 231.256 25.9739 230.857 26.202C230.03 26.6582 229.161 27.2855 228.248 28.0839C227.336 28.8537 226.437 29.7377 225.554 30.7356C224.584 31.8191 223.786 32.8884 223.158 33.9434C222.531 34.9699 222.118 35.8253 221.918 36.5096C221.861 36.7377 221.833 36.9373 221.833 37.1084C221.833 37.5076 221.989 37.7072 222.303 37.7072C222.503 37.7072 222.774 37.6217 223.116 37.4506C223.458 37.251 223.9 36.9231 224.442 36.4669C225.525 35.5544 226.609 34.5137 227.692 33.3446C228.804 32.1756 229.802 30.9637 230.686 29.7091C231.37 28.7397 232.169 27.7132 233.081 26.6297C233.994 25.5176 234.949 24.4484 235.947 23.4219C236.945 22.3669 237.914 21.4117 238.855 20.5563C239.825 19.7009 240.694 19.0166 241.464 18.5033C242.348 17.9045 242.961 17.5624 243.303 17.4768C243.674 17.3913 243.988 17.3485 244.244 17.3485C243.988 17.5481 243.432 18.0614 242.576 18.8882C241.749 19.6866 240.751 20.6989 239.582 21.9249C238.442 23.151 237.244 24.4769 235.99 25.9026C234.763 27.3283 233.637 28.7539 232.611 30.1796C231.812 31.2631 231.057 32.3894 230.344 33.5585C229.631 34.699 229.161 35.6115 228.932 36.2958C228.847 36.5239 228.79 36.7235 228.761 36.8946C228.733 37.0656 228.719 37.2225 228.719 37.365C228.719 37.8213 228.904 38.0494 229.275 38.0494C229.531 38.0494 229.831 37.9496 230.173 37.75C230.543 37.5219 230.914 37.2652 231.285 36.9801C231.77 36.5809 232.24 36.139 232.696 35.6542C233.181 35.1695 233.609 34.699 233.979 34.2428C234.093 34.2428 234.15 34.3283 234.15 34.4994C234.15 34.756 234.093 34.9556 233.979 35.0982C233.609 35.5259 233.152 35.9964 232.611 36.5096C232.097 37.0229 231.584 37.4791 231.071 37.8783C230.7 38.1919 230.273 38.4628 229.788 38.6909C229.303 38.919 228.833 39.0331 228.376 39.0331C227.721 39.0331 227.25 38.8763 226.965 38.5626C226.708 38.249 226.58 37.8498 226.58 37.365C226.58 36.8803 226.68 36.3528 226.879 35.7825C227.079 35.2123 227.321 34.6562 227.607 34.1145C227.122 34.6277 226.594 35.1837 226.024 35.7825C225.454 36.3528 225.083 36.7092 224.912 36.8518C224.285 37.4221 223.686 37.921 223.116 38.3488C222.545 38.7479 221.947 38.976 221.319 39.0331Z" fill="#1B2F5A"/>
<path d="M224.015 22.9087C223.445 22.9087 223.16 22.6805 223.16 22.2243C223.16 22.0818 223.203 21.9249 223.288 21.7539C223.431 21.4117 223.673 21.1123 224.015 20.8557C224.386 20.5705 224.742 20.428 225.084 20.428C225.626 20.428 225.897 20.6561 225.897 21.1123C225.897 21.54 225.697 21.9392 225.298 22.3099C224.899 22.6805 224.471 22.8801 224.015 22.9087ZM214.734 39.0758C213.964 39.0758 213.422 38.8763 213.109 38.4771C212.767 38.0494 212.595 37.5219 212.595 36.8946C212.595 36.0677 212.852 35.1837 213.365 34.2428C213.85 33.2733 214.463 32.3181 215.204 31.3772C215.946 30.4077 216.701 29.5095 217.471 28.6827C218.241 27.8272 218.911 27.1287 219.481 26.5869C220.023 26.0451 220.579 25.646 221.15 25.3893C221.72 25.1327 222.205 24.9616 222.604 24.8761C223.031 24.762 223.245 24.705 223.245 24.705C222.618 25.4179 221.763 26.4301 220.679 27.7417C219.596 29.0533 218.526 30.4505 217.471 31.9332C217.386 32.0473 217.186 32.3324 216.872 32.7886C216.559 33.2448 216.202 33.7723 215.803 34.3711C215.433 34.9699 215.105 35.5544 214.82 36.1247C214.563 36.695 214.435 37.1512 214.435 37.4933C214.435 38.0351 214.72 38.306 215.29 38.306C215.718 38.306 216.174 38.1492 216.659 37.8355C217.172 37.5219 217.685 37.1369 218.198 36.6807C218.712 36.2245 219.168 35.7825 219.567 35.3548C219.995 34.8986 220.323 34.5279 220.551 34.2428C220.665 34.2428 220.722 34.3283 220.722 34.4994C220.722 34.756 220.665 34.9556 220.551 35.0982C219.467 36.3528 218.484 37.3365 217.6 38.0494C216.744 38.7337 215.789 39.0758 214.734 39.0758Z" fill="#1B2F5A"/>
<path d="M195.863 49.5118C195.037 49.5118 194.466 49.4405 194.153 49.2979C193.81 49.1839 193.639 49.0841 193.639 48.9985C193.639 48.8845 193.739 48.8275 193.939 48.8275C194.081 48.8275 194.224 48.8275 194.366 48.8275C194.509 48.856 194.652 48.8702 194.794 48.8702C195.821 48.8702 196.847 48.5566 197.874 47.9293C198.9 47.302 199.898 46.4608 200.868 45.4058C201.837 44.3793 202.764 43.2388 203.648 41.9842C204.532 40.7296 205.33 39.4893 206.043 38.2632L209.336 32.5747C208.965 33.0024 208.481 33.5727 207.882 34.2855C207.312 34.9984 206.684 35.7112 206 36.4241C205.316 37.1369 204.646 37.7499 203.99 38.2632C203.334 38.7479 202.721 38.9903 202.151 38.9903C201.466 38.9903 200.982 38.8335 200.696 38.5198C200.411 38.2062 200.269 37.807 200.269 37.3222C200.269 36.8375 200.383 36.31 200.611 35.7397C200.811 35.1695 201.067 34.5992 201.381 34.0289C201.923 33.1165 202.536 32.2041 203.22 31.2916C203.933 30.3507 204.646 29.481 205.358 28.6826C206.1 27.8557 206.756 27.1572 207.326 26.5869C207.868 26.0451 208.424 25.6459 208.994 25.3893C209.564 25.1327 210.049 24.9616 210.448 24.8761C210.876 24.762 211.09 24.705 211.09 24.705C210.462 25.4178 209.607 26.4301 208.523 27.7417C207.468 29.0533 206.399 30.4505 205.316 31.9332C205.202 32.0757 204.988 32.3751 204.674 32.8314C204.389 33.2876 204.075 33.8008 203.733 34.3711C203.391 34.9128 203.092 35.4546 202.835 35.9964C202.607 36.5096 202.493 36.923 202.493 37.2367C202.493 37.5503 202.664 37.6929 203.006 37.6644C203.377 37.6359 203.862 37.365 204.46 36.8518C205.059 36.3385 205.701 35.7112 206.385 34.9699C207.069 34.2285 207.711 33.5014 208.31 32.7886C208.937 32.0472 209.45 31.4342 209.849 30.9495C210.249 30.4932 210.719 29.923 211.261 29.2386C211.803 28.5543 212.387 27.87 213.014 27.1857C213.642 26.4728 214.297 25.8883 214.982 25.4321C215.695 24.9474 216.407 24.705 217.12 24.705C217.377 24.705 217.534 24.7335 217.591 24.7905C216.564 25.2753 215.609 26.0594 214.725 27.1429C213.841 28.2264 213 29.4953 212.202 30.9495C211.403 32.4036 210.591 33.9434 209.764 35.5687C208.965 37.1654 208.11 38.7337 207.198 40.2734C206.285 41.8416 205.287 43.2531 204.204 44.5077C202.921 45.9904 201.552 47.1879 200.098 48.1004C198.615 49.0413 197.204 49.5118 195.863 49.5118Z" fill="#1B2F5A"/>
<path d="M193.943 39.2897C193.373 39.2897 192.817 39.2327 192.275 39.1186C191.762 39.0045 191.306 38.805 190.906 38.5198C190.593 38.2917 190.336 37.9781 190.137 37.5789C189.908 37.1797 189.794 36.6664 189.794 36.0391C189.794 35.2978 189.98 34.7275 190.35 34.3283C190.693 33.9291 191.063 33.7295 191.462 33.7295C191.776 33.3304 192.204 32.7743 192.746 32.0615C193.287 31.3201 193.886 30.5075 194.542 29.6236C195.226 28.7397 195.925 27.8557 196.638 26.9718C197.351 26.0594 198.021 25.2468 198.648 24.5339C199.047 24.1347 199.461 23.707 199.888 23.2508C200.344 22.7946 200.843 22.4097 201.385 22.096C201.955 21.7538 202.554 21.5828 203.182 21.5828C203.666 21.5828 204.008 21.6968 204.208 21.9249C204.436 22.153 204.55 22.4239 204.55 22.7376C204.55 22.9086 204.507 23.0655 204.422 23.208C204.108 23.151 203.666 23.208 203.096 23.3791C202.526 23.5217 201.898 23.7926 201.214 24.1918C200.473 24.648 199.717 25.2182 198.947 25.9026C198.919 26.2447 198.876 26.7722 198.819 27.4851C198.79 28.1694 198.748 28.9535 198.691 29.8374C198.634 30.6928 198.534 31.5625 198.391 32.4464C198.277 33.3018 198.12 34.0574 197.921 34.7133C197.778 35.1695 197.55 35.6827 197.236 36.253C196.923 36.7947 196.495 37.308 195.953 37.7927C195.44 38.2489 194.799 38.5626 194.029 38.7337C195.055 38.7337 195.911 38.5768 196.595 38.2632C197.279 37.9495 197.85 37.5931 198.306 37.1939C198.79 36.7662 199.175 36.4241 199.461 36.1674C199.689 35.9393 200.002 35.6114 200.401 35.1837C200.801 34.756 201.086 34.4424 201.257 34.2428C201.371 34.2428 201.428 34.3283 201.428 34.4994C201.428 34.756 201.371 34.9556 201.257 35.0982C200.059 36.3813 199.061 37.3222 198.263 37.921C197.55 38.4628 196.823 38.8192 196.082 38.9903C195.34 39.1899 194.627 39.2897 193.943 39.2897ZM192.446 38.477C192.931 38.477 193.373 38.2917 193.772 37.921C194.2 37.5218 194.585 37.0656 194.927 36.5524C195.269 36.0106 195.54 35.5116 195.74 35.0554C196.053 34.3711 196.381 33.5014 196.723 32.4464C197.065 31.3914 197.393 30.3222 197.707 29.2387C198.021 28.1266 198.277 27.1714 198.477 26.373C197.678 27.1429 196.88 27.9841 196.082 28.8965C195.312 29.8089 194.599 30.6786 193.943 31.5055C193.287 32.3324 192.746 33.0167 192.318 33.5585C191.947 34.0432 191.662 34.5564 191.462 35.0982C191.263 35.6399 191.163 36.1532 191.163 36.6379C191.163 37.1797 191.277 37.6216 191.505 37.9638C191.733 38.306 192.047 38.477 192.446 38.477Z" fill="#1B2F5A"/>
<path d="M177.881 39.0331C176.826 39.0331 176.298 38.4343 176.298 37.2367C176.298 36.5524 176.498 35.7398 176.897 34.7988C177.296 33.8294 177.895 32.8171 178.693 31.7621C179.264 31.0493 179.962 30.2937 180.789 29.4953C181.616 28.6684 182.514 27.8843 183.484 27.1429C184.482 26.4016 185.494 25.8028 186.52 25.3466C187.547 24.8618 188.545 24.6195 189.514 24.6195C189.942 24.6195 190.241 24.6908 190.413 24.8333C190.584 24.9474 190.698 25.0757 190.755 25.2183C190.812 25.3323 190.812 25.4179 190.755 25.4749C190.726 25.5319 190.683 25.5462 190.626 25.5177C190.512 25.4606 190.284 25.4321 189.942 25.4321C188.916 25.4321 187.69 25.9311 186.264 26.9291C184.867 27.8985 183.484 29.1674 182.115 30.7356C181.146 31.8192 180.347 32.8884 179.72 33.9434C179.093 34.9699 178.679 35.8253 178.48 36.5096C178.423 36.7377 178.394 36.9373 178.394 37.1084C178.394 37.5076 178.551 37.7072 178.865 37.7072C179.064 37.7072 179.335 37.6217 179.677 37.4506C180.019 37.251 180.461 36.9231 181.003 36.4669C181.858 35.7255 182.7 34.8558 183.527 33.8579C184.382 32.8599 185.223 31.8477 186.05 30.8212C186.877 29.7662 187.675 28.7967 188.445 27.9128C189.243 27.0289 189.999 26.3588 190.712 25.9026C191.624 25.3038 192.252 24.9616 192.594 24.8761C192.965 24.7906 193.264 24.7335 193.492 24.705C193.349 24.8761 193.036 25.2753 192.551 25.9026C192.066 26.5299 191.553 27.2 191.011 27.9128C190.47 28.5971 190.028 29.1674 189.685 29.6236C189.172 30.365 188.616 31.1633 188.017 32.0187C187.447 32.8742 186.92 33.6868 186.435 34.4567C185.979 35.198 185.665 35.8111 185.494 36.2958C185.351 36.7805 185.28 37.1369 185.28 37.365C185.28 37.8213 185.465 38.0494 185.836 38.0494C186.093 38.0494 186.392 37.9496 186.734 37.75C187.105 37.5219 187.476 37.2652 187.846 36.9801C188.331 36.5809 188.787 36.1675 189.215 35.7398C189.643 35.2835 190.085 34.7846 190.541 34.2428C190.655 34.2428 190.712 34.3283 190.712 34.4994C190.712 34.756 190.655 34.9556 190.541 35.0982C190.17 35.5259 189.714 35.9964 189.172 36.5096C188.659 37.0229 188.146 37.4791 187.632 37.8783C187.262 38.1919 186.834 38.4628 186.349 38.6909C185.865 38.919 185.394 39.0331 184.938 39.0331C184.282 39.0331 183.826 38.8763 183.569 38.5626C183.313 38.249 183.184 37.8498 183.184 37.365C183.184 36.7948 183.313 36.1817 183.569 35.5259C183.826 34.8416 184.111 34.2 184.425 33.6012C184.054 34.0575 183.584 34.6135 183.013 35.2693C182.443 35.8966 181.93 36.4241 181.474 36.8518C180.846 37.4221 180.247 37.9353 179.677 38.3915C179.107 38.8192 178.508 39.0331 177.881 39.0331Z" fill="#1B2F5A"/>
<path d="M149.28 40.5728C148.767 40.5728 148.225 40.4872 147.655 40.3162C147.085 40.1451 146.6 39.8314 146.201 39.3752C145.773 38.9475 145.559 38.363 145.559 37.6216C145.559 37.2224 145.702 36.7947 145.987 36.3385C146.243 35.8538 146.586 35.5972 147.013 35.5687C146.899 35.6827 146.814 35.8681 146.757 36.1247C146.728 36.3813 146.714 36.6094 146.714 36.809C146.742 37.2937 146.956 37.7072 147.355 38.0493C147.755 38.3915 148.382 38.5626 149.237 38.5626C150.321 38.5626 151.447 38.2489 152.616 37.6216C153.814 36.9658 155.011 36.1104 156.209 35.0554C157.435 33.9719 158.618 32.7743 159.759 31.4627C160.928 30.1511 161.997 28.8252 162.967 27.4851C163.879 26.202 164.948 24.7763 166.174 23.208C167.4 21.6398 168.726 20.1143 170.152 18.6316C171.578 17.1489 173.032 15.9228 174.515 14.9534C173.83 14.5542 172.989 14.2405 171.991 14.0124C170.993 13.7558 169.81 13.6275 168.441 13.6275C166.445 13.6275 164.578 13.9126 162.838 14.4829C161.099 15.0532 159.516 15.8088 158.091 16.7497C156.665 17.6907 155.425 18.7314 154.37 19.8719C153.343 20.984 152.545 22.1245 151.975 23.2936C151.433 24.4341 151.162 25.4891 151.162 26.4586C151.162 27.3995 151.447 28.1979 152.017 28.8537C152.616 29.481 153.571 29.8517 154.883 29.9657C155.054 29.9657 155.14 30.0085 155.14 30.0941C155.14 30.2081 155.011 30.2509 154.755 30.2224C153.044 30.0798 151.775 29.5951 150.948 28.7682C150.15 27.9128 149.751 26.872 149.751 25.6459C149.751 24.3628 150.164 23.0084 150.991 21.5828C151.846 20.1286 153.072 18.7599 154.669 17.4768C156.266 16.1652 158.205 15.1102 160.486 14.3118C162.796 13.4849 165.39 13.0715 168.27 13.0715C169.838 13.0715 171.207 13.1998 172.376 13.4564C173.545 13.713 174.543 14.0409 175.37 14.4401C176.938 13.4992 178.464 13.0287 179.946 13.0287C180.688 13.0287 181.401 13.2283 182.085 13.6275C182.798 13.9981 183.154 14.711 183.154 15.766C182.983 15.3098 182.555 14.8821 181.871 14.4829C181.215 14.0552 180.445 13.8413 179.562 13.8413C178.963 13.8413 178.364 13.9269 177.765 14.0979C177.166 14.269 176.582 14.5114 176.012 14.825C177.01 15.4523 177.737 16.1794 178.193 17.0063C178.649 17.8332 178.877 18.6886 178.877 19.5726C178.877 20.7416 178.478 21.8821 177.68 22.9942C176.881 24.1062 175.826 25.0186 174.515 25.7315C173.203 26.4158 171.763 26.758 170.195 26.758C170.223 26.872 170.238 26.9861 170.238 27.1001C170.238 27.2142 170.238 27.3425 170.238 27.4851C170.238 28.312 170.109 29.367 169.853 30.6501C169.796 31.0207 169.696 31.6053 169.553 32.4037C169.439 33.202 169.382 34.0147 169.382 34.8416C169.382 35.811 169.51 36.6664 169.767 37.4078C170.052 38.1491 170.58 38.5198 171.35 38.5198C172.062 38.5198 172.79 38.2632 173.531 37.7499C174.272 37.2082 174.957 36.5951 175.584 35.9108C176.24 35.2265 176.753 34.6705 177.124 34.2428C177.238 34.2428 177.295 34.3283 177.295 34.4994C177.295 34.756 177.238 34.9556 177.124 35.0982C175.812 36.6379 174.6 37.7785 173.488 38.5198C172.376 39.2327 171.15 39.5891 169.81 39.5891C169.154 39.5891 168.555 39.3752 168.014 38.9475C167.472 38.4913 167.201 37.6216 167.201 36.3385C167.201 35.6257 167.329 34.8416 167.586 33.9862C167.842 33.1022 168.128 32.2183 168.441 31.3344C168.783 30.4505 169.083 29.6521 169.339 28.9393C169.596 28.1979 169.724 27.6276 169.724 27.2284C169.724 27.0003 169.696 26.8578 169.639 26.8007C169.268 26.7437 168.983 26.6297 168.783 26.4586C168.612 26.259 168.527 26.0736 168.527 25.9026C168.527 25.6745 168.669 25.5604 168.954 25.5604C169.582 25.5604 169.981 25.874 170.152 26.5013C171.007 26.4158 171.849 26.1307 172.675 25.6459C173.502 25.1327 174.229 24.5197 174.857 23.8068C175.513 23.0655 176.026 22.2813 176.397 21.4544C176.796 20.6276 176.995 19.8292 176.995 19.0593C176.995 18.375 176.838 17.7192 176.525 17.0919C176.211 16.4361 175.726 15.8515 175.071 15.3383C173.959 16.0511 172.861 16.9636 171.777 18.0756C170.722 19.1591 169.696 20.3282 168.698 21.5828C167.728 22.8088 166.816 24.0207 165.961 25.2182C165.105 26.4158 164.335 27.4993 163.651 28.4688C162.653 29.8374 161.626 31.2346 160.571 32.6603C159.516 34.086 158.404 35.3976 157.235 36.5951C156.066 37.7927 154.826 38.7479 153.514 39.4608C152.203 40.2021 150.791 40.5728 149.28 40.5728Z" fill="#1B2F5A"/>
<path d="M133.617 39.1186C132.191 39.1186 131.478 38.4628 131.478 37.1512C131.478 36.7235 131.578 36.2245 131.778 35.6542C131.977 35.0839 132.348 34.3283 132.89 33.3874C133.631 32.1043 134.672 30.5931 136.012 28.8537C137.381 27.1144 138.835 25.4178 140.375 23.7641C141.715 22.2528 143.169 20.8699 144.737 19.6153C146.334 18.3322 147.988 17.4483 149.698 16.9636C149.955 16.878 150.254 16.8068 150.597 16.7497C150.939 16.6927 151.295 16.6642 151.666 16.6642C152.35 16.6642 152.935 16.764 153.419 16.9636C153.648 17.0776 153.876 17.2345 154.104 17.4341C154.332 17.6051 154.489 17.8618 154.574 18.2039C154.261 17.9473 153.904 17.762 153.505 17.6479C153.106 17.5053 152.621 17.4341 152.051 17.4341C150.568 17.4341 149.142 17.9188 147.774 18.8882C146.405 19.8577 145.036 21.1123 143.668 22.652C142.328 24.1633 140.916 25.7743 139.434 27.4851C138.863 28.1409 138.236 28.9535 137.552 29.923C136.867 30.8925 136.212 31.8619 135.584 32.8314C134.985 33.8008 134.501 34.6277 134.13 35.3121C133.93 35.6257 133.774 35.9679 133.66 36.3385C133.574 36.6807 133.531 36.9658 133.531 37.194C133.531 37.8783 133.788 38.2204 134.301 38.2204C134.843 38.2204 135.442 37.9638 136.097 37.4506C136.782 36.9373 137.423 36.3671 138.022 35.7398C138.649 35.1125 139.12 34.6135 139.434 34.2428C139.548 34.2428 139.605 34.3283 139.605 34.4994C139.605 34.756 139.548 34.9556 139.434 35.0982C138.293 36.4098 137.238 37.4078 136.269 38.0921C135.328 38.7765 134.444 39.1186 133.617 39.1186Z" fill="#1B2F5A"/>
<path d="M108.368 40.3162C107.342 40.3162 106.344 40.1451 105.374 39.8029C104.405 39.4608 103.607 38.9475 102.979 38.2632C102.324 37.5504 101.996 36.6379 101.996 35.5259C101.996 34.1857 102.523 32.8028 103.578 31.3772C104.633 29.9515 106.087 28.8109 107.941 27.9555C109.537 27.2427 111.205 26.7295 112.945 26.4158C114.713 26.0736 116.538 25.9026 118.419 25.9026C119.76 25.9026 121.085 25.9596 122.397 26.0736C123.709 26.1592 125.02 26.2875 126.332 26.4586C127.758 24.8903 129.198 23.4076 130.652 22.0105C132.106 20.5848 133.546 19.3587 134.972 18.3322C136.426 17.3057 137.866 16.6357 139.291 16.322C138.493 16.322 137.509 16.2792 136.34 16.1937C135.171 16.0796 133.917 15.9656 132.576 15.8515C131.265 15.7375 129.939 15.6804 128.599 15.6804C126.66 15.6804 124.835 15.88 123.124 16.2792C121.442 16.6784 120.144 17.5053 119.232 18.7599C118.975 19.1306 118.79 19.487 118.676 19.8292C118.562 20.1713 118.505 20.4992 118.505 20.8129C118.505 21.2121 118.59 21.5685 118.762 21.8821C118.876 21.9962 119.004 22.1245 119.147 22.2671C119.289 22.3811 119.417 22.4382 119.531 22.4382C119.417 22.5522 119.275 22.6092 119.104 22.6092C118.904 22.6092 118.705 22.5665 118.505 22.4809C118.334 22.3669 118.191 22.2528 118.077 22.1388C117.792 21.8251 117.578 21.4687 117.436 21.0695C117.293 20.6418 117.222 20.2284 117.222 19.8292C117.222 19.0308 117.407 18.3607 117.778 17.819C118.605 16.7354 119.631 15.9371 120.857 15.4238C122.112 14.9106 123.68 14.654 125.562 14.654C125.79 14.654 126.018 14.654 126.246 14.654C126.503 14.654 126.745 14.6682 126.973 14.6967C129.112 14.8108 131.208 15.0246 133.261 15.3383C135.314 15.6519 137.495 15.8088 139.805 15.8088C141.059 15.8088 142.185 15.7517 143.183 15.6377C144.21 15.4951 144.88 15.2527 145.194 14.9106H145.279C145.621 14.9106 145.792 15.0959 145.792 15.4666C145.764 15.9513 145.507 16.2792 145.023 16.4503C144.566 16.6214 144.053 16.7069 143.483 16.7069C143.027 16.7069 142.57 16.6784 142.114 16.6214C141.686 16.5644 141.33 16.5216 141.045 16.4931C139.619 16.5786 138.122 17.1204 136.554 18.1184C135.014 19.0878 133.46 20.3282 131.892 21.8394C130.324 23.3221 128.77 24.9046 127.23 26.5869C127.743 26.6724 128.257 26.758 128.77 26.8435C129.312 26.929 129.839 27.0288 130.352 27.1429C131.293 25.9738 132.263 24.8476 133.261 23.764C134.259 22.6805 135.228 21.6826 136.169 20.7701C136.796 20.1428 137.481 19.544 138.222 18.9738C138.963 18.4035 139.691 17.933 140.403 17.5623C141.116 17.1632 141.744 16.9636 142.285 16.9636C141.915 17.2487 141.344 17.7762 140.574 18.5461C139.805 19.2874 139.092 20.0145 138.436 20.7273C137.638 21.6113 136.711 22.652 135.656 23.8496C134.629 25.0472 133.617 26.2875 132.619 27.5706C133.161 27.6847 133.688 27.7987 134.202 27.9128C134.743 28.0268 135.285 28.1551 135.827 28.2977C136.055 28.3262 136.169 28.4118 136.169 28.5543C136.169 28.6113 136.112 28.6684 135.998 28.7254C135.912 28.7824 135.798 28.7967 135.656 28.7682L132.191 28.0838C131.051 29.5095 130.01 30.8782 129.069 32.1898C128.157 33.5014 127.501 34.5422 127.102 35.312C126.902 35.6827 126.731 36.0676 126.589 36.4668C126.446 36.8375 126.375 37.1797 126.375 37.4933C126.375 38.0636 126.617 38.3487 127.102 38.3487C127.415 38.3487 127.843 38.2062 128.385 37.921C129.212 37.4363 129.939 36.866 130.566 36.2102C131.222 35.5544 131.835 34.8986 132.405 34.2428C132.519 34.2428 132.576 34.3283 132.576 34.4994C132.576 34.756 132.519 34.9556 132.405 35.0982C131.094 36.6379 129.996 37.6929 129.112 38.2632C128.257 38.8049 127.301 39.0758 126.246 39.0758C125.562 39.0758 125.063 38.919 124.749 38.6054C124.464 38.2632 124.322 37.8497 124.322 37.365C124.322 36.8803 124.422 36.3528 124.621 35.7825C124.849 35.2122 125.12 34.6562 125.434 34.1145C126.004 33.1165 126.674 32.0757 127.444 30.9922C128.214 29.8802 129.041 28.7682 129.925 27.6561C129.383 27.5706 128.841 27.4851 128.299 27.3995C127.786 27.314 127.244 27.2427 126.674 27.1857C125.505 28.4973 124.35 29.7804 123.21 31.035C122.069 32.2896 120.971 33.4301 119.916 34.4566C118.861 35.4831 117.764 36.4526 116.623 37.365C115.483 38.2489 114.242 38.9618 112.902 39.5035C111.562 40.0453 110.051 40.3162 108.368 40.3162ZM108.539 38.6909C109.509 38.6909 110.521 38.5768 111.576 38.3487C112.631 38.1206 113.772 37.6644 114.998 36.9801C116.252 36.2958 117.621 35.2835 119.104 33.9434C120.187 32.9454 121.285 31.8619 122.397 30.6928C123.509 29.4953 124.635 28.2834 125.776 27.0574C125.006 26.9718 124.222 26.9005 123.424 26.8435C122.654 26.7865 121.87 26.758 121.071 26.758C118.904 26.758 116.68 26.872 114.399 27.1001C112.146 27.2997 109.965 27.8985 107.855 28.8965C106.23 29.6093 105.018 30.5075 104.22 31.591C103.393 32.6745 102.979 33.7153 102.979 34.7133C102.979 35.7968 103.45 36.7377 104.391 37.5361C105.332 38.306 106.715 38.6909 108.539 38.6909Z" fill="#1B2F5A"/>
<defs>
<clipPath id="clip0_195_110">
<rect width="345" height="14" fill="white"/>
</clipPath>
</defs>
</svg>
